<?xml version="1.0" encoding="UTF-8" standalone="no"?>
<!DOCTYPE svg PUBLIC "-//W3C//DTD SVG 1.1//EN" "http://www.w3.org/Graphics/SVG/1.1/DTD/svg11.dtd">
<!-- Wygenerowane w programie Microsoft Visio, SVG Export seats.svg Strona 1 -->
<svg xmlns="http://www.w3.org/2000/svg" xmlns:xlink="http://www.w3.org/1999/xlink" xmlns:ev="http://www.w3.org/2001/xml-events"
		width="4.38703in" height="4.06813in" viewBox="0 0 315.866 292.905" xml:space="preserve" color-interpolation-filters="sRGB"
		class="st2">
	<style type="text/css">
	<![CDATA[
		.st1 {fill:#ffffff;stroke:#000000;stroke-linecap:round;stroke-linejoin:round;stroke-width:0.24}
		.st2 {fill:none;fill-rule:evenodd;font-size:12px;overflow:visible;stroke-linecap:square;stroke-miterlimit:3}
		.table{
		    fill:#64BF5E !important;
            opacity: 0.5;
		}
		.table-selected{
		    opacity: 1 !important;
		}
		.table-selected path{
            fill:#64BF5E !important;
        }
        .table-selected rect{
            fill:#64BF5E !important;
        }
        .table-taken path{
            fill:#BF332E;
            opacity: 0.3;
        }
        .table-taken rect{
            fill:#BF332E;
        }
	]]>
	</style>

	<g>
		<g class="table" id="table-1" transform="translate(0.12,-245.265)" selected="false" available="true">
			<g id="shape2-2" transform="translate(305.865,245.385) rotate(90)">
				<path d="M5.22 277.79 L1.44 277.79 A1.44 1.44 0 0 1 2.88 279.23 L2.88 291.47 A1.44 1.44 0 0 1 1.44 292.91 A1.44 1.44
							 0 0 1 0 291.47 L0 279.23 A1.44 1.44 0 0 1 1.44 277.79 A1.44 1.44 0 0 1 2.88 279.23 L2.88 291.47 A1.44
							 1.44 0 0 1 1.44 292.91 L5.22 292.91 L15.48 292.91 L15.48 277.79 L5.22 277.79 Z" class="st1"/>
			</g>
			<g id="shape3-4" transform="translate(325.305,245.385) rotate(90)">
				<path d="M5.22 277.79 L1.44 277.79 A1.44 1.44 0 0 1 2.88 279.23 L2.88 291.47 A1.44 1.44 0 0 1 1.44 292.91 A1.44 1.44
							 0 0 1 0 291.47 L0 279.23 A1.44 1.44 0 0 1 1.44 277.79 A1.44 1.44 0 0 1 2.88 279.23 L2.88 291.47 A1.44
							 1.44 0 0 1 1.44 292.91 L5.22 292.91 L15.48 292.91 L15.48 277.79 L5.22 277.79 Z" class="st1"/>
			</g>
			<g id="shape4-6" transform="translate(-245.385,292.933) rotate(-90)">
				<title>Arkusz.4</title>
				<path d="M5.22 277.79 L1.44 277.79 A1.44 1.44 0 0 1 2.88 279.23 L2.88 291.47 A1.44 1.44 0 0 1 1.44 292.91 A1.44 1.44
							 0 0 1 0 291.47 L0 279.23 A1.44 1.44 0 0 1 1.44 277.79 A1.44 1.44 0 0 1 2.88 279.23 L2.88 291.47 A1.44
							 1.44 0 0 1 1.44 292.91 L5.22 292.91 L15.48 292.91 L15.48 277.79 L5.22 277.79 Z" class="st1"/>
			</g>
			<g id="shape5-8" transform="translate(-264.825,292.933) rotate(-90)">
				<title>Arkusz.5</title>
				<path d="M5.22 277.79 L1.44 277.79 A1.44 1.44 0 0 1 2.88 279.23 L2.88 291.47 A1.44 1.44 0 0 1 1.44 292.91 A1.44 1.44
							 0 0 1 0 291.47 L0 279.23 A1.44 1.44 0 0 1 1.44 277.79 A1.44 1.44 0 0 1 2.88 279.23 L2.88 291.47 A1.44
							 1.44 0 0 1 1.44 292.91 L5.22 292.91 L15.48 292.91 L15.48 277.79 L5.22 277.79 Z" class="st1"/>
			</g>
			<g id="shape6-10" transform="translate(0,-16.2)">
				<title>Arkusz.6</title>
				<path d="M5.22 277.79 L1.44 277.79 A1.44 1.44 0 0 1 2.88 279.23 L2.88 291.47 A1.44 1.44 0 0 1 1.44 292.91 A1.44 1.44
							 0 0 1 0 291.47 L0 279.23 A1.44 1.44 0 0 1 1.44 277.79 A1.44 1.44 0 0 1 2.88 279.23 L2.88 291.47 A1.44
							 1.44 0 0 1 1.44 292.91 L5.22 292.91 L15.48 292.91 L15.48 277.79 L5.22 277.79 Z" class="st1"/>
			</g>
			<g id="shape7-12" transform="translate(60.5077,554.49) rotate(180)">
				<title>Arkusz.7</title>
				<path d="M5.22 277.79 L1.44 277.79 A1.44 1.44 0 0 1 2.88 279.23 L2.88 291.47 A1.44 1.44 0 0 1 1.44 292.91 A1.44 1.44
							 0 0 1 0 291.47 L0 279.23 A1.44 1.44 0 0 1 1.44 277.79 A1.44 1.44 0 0 1 2.88 279.23 L2.88 291.47 A1.44
							 1.44 0 0 1 1.44 292.91 L5.22 292.91 L15.48 292.91 L15.48 277.79 L5.22 277.79 Z" class="st1"/>
			</g>
			<g id="shape8-14" transform="translate(8.64,-8.64)">
				<title>Arkusz.8</title>
				<rect x="0" y="262.665" width="43.2" height="30.24" class="st1"/>
			</g>
		</g>
		<g class="table" id="table-2" transform="translate(0.12,-122.706)" selected="false" available="true">
			<title>Stół do jadalni — podłużny.9</title>
			<g id="shape10-17" transform="translate(305.865,245.385) rotate(90)">
				<title>Arkusz.10</title>
				<path d="M5.22 277.79 L1.44 277.79 A1.44 1.44 0 0 1 2.88 279.23 L2.88 291.47 A1.44 1.44 0 0 1 1.44 292.91 A1.44 1.44
							 0 0 1 0 291.47 L0 279.23 A1.44 1.44 0 0 1 1.44 277.79 A1.44 1.44 0 0 1 2.88 279.23 L2.88 291.47 A1.44
							 1.44 0 0 1 1.44 292.91 L5.22 292.91 L15.48 292.91 L15.48 277.79 L5.22 277.79 Z" class="st1"/>
			</g>
			<g id="shape11-19" transform="translate(325.305,245.385) rotate(90)">
				<title>Arkusz.11</title>
				<path d="M5.22 277.79 L1.44 277.79 A1.44 1.44 0 0 1 2.88 279.23 L2.88 291.47 A1.44 1.44 0 0 1 1.44 292.91 A1.44 1.44
							 0 0 1 0 291.47 L0 279.23 A1.44 1.44 0 0 1 1.44 277.79 A1.44 1.44 0 0 1 2.88 279.23 L2.88 291.47 A1.44
							 1.44 0 0 1 1.44 292.91 L5.22 292.91 L15.48 292.91 L15.48 277.79 L5.22 277.79 Z" class="st1"/>
			</g>
			<g id="shape12-21" transform="translate(-245.385,292.933) rotate(-90)">
				<title>Arkusz.12</title>
				<path d="M5.22 277.79 L1.44 277.79 A1.44 1.44 0 0 1 2.88 279.23 L2.88 291.47 A1.44 1.44 0 0 1 1.44 292.91 A1.44 1.44
							 0 0 1 0 291.47 L0 279.23 A1.44 1.44 0 0 1 1.44 277.79 A1.44 1.44 0 0 1 2.88 279.23 L2.88 291.47 A1.44
							 1.44 0 0 1 1.44 292.91 L5.22 292.91 L15.48 292.91 L15.48 277.79 L5.22 277.79 Z" class="st1"/>
			</g>
			<g id="shape13-23" transform="translate(-264.825,292.933) rotate(-90)">
				<title>Arkusz.13</title>
				<path d="M5.22 277.79 L1.44 277.79 A1.44 1.44 0 0 1 2.88 279.23 L2.88 291.47 A1.44 1.44 0 0 1 1.44 292.91 A1.44 1.44
							 0 0 1 0 291.47 L0 279.23 A1.44 1.44 0 0 1 1.44 277.79 A1.44 1.44 0 0 1 2.88 279.23 L2.88 291.47 A1.44
							 1.44 0 0 1 1.44 292.91 L5.22 292.91 L15.48 292.91 L15.48 277.79 L5.22 277.79 Z" class="st1"/>
			</g>
			<g id="shape14-25" transform="translate(0,-16.2)">
				<title>Arkusz.14</title>
				<path d="M5.22 277.79 L1.44 277.79 A1.44 1.44 0 0 1 2.88 279.23 L2.88 291.47 A1.44 1.44 0 0 1 1.44 292.91 A1.44 1.44
							 0 0 1 0 291.47 L0 279.23 A1.44 1.44 0 0 1 1.44 277.79 A1.44 1.44 0 0 1 2.88 279.23 L2.88 291.47 A1.44
							 1.44 0 0 1 1.44 292.91 L5.22 292.91 L15.48 292.91 L15.48 277.79 L5.22 277.79 Z" class="st1"/>
			</g>
			<g id="shape15-27" transform="translate(60.5077,554.49) rotate(180)">
				<title>Arkusz.15</title>
				<path d="M5.22 277.79 L1.44 277.79 A1.44 1.44 0 0 1 2.88 279.23 L2.88 291.47 A1.44 1.44 0 0 1 1.44 292.91 A1.44 1.44
							 0 0 1 0 291.47 L0 279.23 A1.44 1.44 0 0 1 1.44 277.79 A1.44 1.44 0 0 1 2.88 279.23 L2.88 291.47 A1.44
							 1.44 0 0 1 1.44 292.91 L5.22 292.91 L15.48 292.91 L15.48 277.79 L5.22 277.79 Z" class="st1"/>
			</g>
			<g id="shape16-29" transform="translate(8.64,-8.64)">
				<title>Arkusz.16</title>
				<rect x="0" y="262.665" width="43.2" height="30.24" class="st1"/>
			</g>
		</g>
		<g class="table" id="table-3" transform="translate(0.12,-0.147692)" selected="false" available="true">
			<title>Stół do jadalni — podłużny.17</title>
			<g id="shape18-32" transform="translate(305.865,245.385) rotate(90)">
				<title>Arkusz.18</title>
				<path d="M5.22 277.79 L1.44 277.79 A1.44 1.44 0 0 1 2.88 279.23 L2.88 291.47 A1.44 1.44 0 0 1 1.44 292.91 A1.44 1.44
							 0 0 1 0 291.47 L0 279.23 A1.44 1.44 0 0 1 1.44 277.79 A1.44 1.44 0 0 1 2.88 279.23 L2.88 291.47 A1.44
							 1.44 0 0 1 1.44 292.91 L5.22 292.91 L15.48 292.91 L15.48 277.79 L5.22 277.79 Z" class="st1"/>
			</g>
			<g id="shape19-34" transform="translate(325.305,245.385) rotate(90)">
				<title>Arkusz.19</title>
				<path d="M5.22 277.79 L1.44 277.79 A1.44 1.44 0 0 1 2.88 279.23 L2.88 291.47 A1.44 1.44 0 0 1 1.44 292.91 A1.44 1.44
							 0 0 1 0 291.47 L0 279.23 A1.44 1.44 0 0 1 1.44 277.79 A1.44 1.44 0 0 1 2.88 279.23 L2.88 291.47 A1.44
							 1.44 0 0 1 1.44 292.91 L5.22 292.91 L15.48 292.91 L15.48 277.79 L5.22 277.79 Z" class="st1"/>
			</g>
			<g id="shape20-36" transform="translate(-245.385,292.933) rotate(-90)">
				<title>Arkusz.20</title>
				<path d="M5.22 277.79 L1.44 277.79 A1.44 1.44 0 0 1 2.88 279.23 L2.88 291.47 A1.44 1.44 0 0 1 1.44 292.91 A1.44 1.44
							 0 0 1 0 291.47 L0 279.23 A1.44 1.44 0 0 1 1.44 277.79 A1.44 1.44 0 0 1 2.88 279.23 L2.88 291.47 A1.44
							 1.44 0 0 1 1.44 292.91 L5.22 292.91 L15.48 292.91 L15.48 277.79 L5.22 277.79 Z" class="st1"/>
			</g>
			<g id="shape21-38" transform="translate(-264.825,292.933) rotate(-90)">
				<title>Arkusz.21</title>
				<path d="M5.22 277.79 L1.44 277.79 A1.44 1.44 0 0 1 2.88 279.23 L2.88 291.47 A1.44 1.44 0 0 1 1.44 292.91 A1.44 1.44
							 0 0 1 0 291.47 L0 279.23 A1.44 1.44 0 0 1 1.44 277.79 A1.44 1.44 0 0 1 2.88 279.23 L2.88 291.47 A1.44
							 1.44 0 0 1 1.44 292.91 L5.22 292.91 L15.48 292.91 L15.48 277.79 L5.22 277.79 Z" class="st1"/>
			</g>
			<g id="shape22-40" transform="translate(0,-16.2)">
				<title>Arkusz.22</title>
				<path d="M5.22 277.79 L1.44 277.79 A1.44 1.44 0 0 1 2.88 279.23 L2.88 291.47 A1.44 1.44 0 0 1 1.44 292.91 A1.44 1.44
							 0 0 1 0 291.47 L0 279.23 A1.44 1.44 0 0 1 1.44 277.79 A1.44 1.44 0 0 1 2.88 279.23 L2.88 291.47 A1.44
							 1.44 0 0 1 1.44 292.91 L5.22 292.91 L15.48 292.91 L15.48 277.79 L5.22 277.79 Z" class="st1"/>
			</g>
			<g id="shape23-42" transform="translate(60.5077,554.49) rotate(180)">
				<title>Arkusz.23</title>
				<path d="M5.22 277.79 L1.44 277.79 A1.44 1.44 0 0 1 2.88 279.23 L2.88 291.47 A1.44 1.44 0 0 1 1.44 292.91 A1.44 1.44
							 0 0 1 0 291.47 L0 279.23 A1.44 1.44 0 0 1 1.44 277.79 A1.44 1.44 0 0 1 2.88 279.23 L2.88 291.47 A1.44
							 1.44 0 0 1 1.44 292.91 L5.22 292.91 L15.48 292.91 L15.48 277.79 L5.22 277.79 Z" class="st1"/>
			</g>
			<g id="shape24-44" transform="translate(8.64,-8.64)">
				<title>Arkusz.24</title>
				<rect x="0" y="262.665" width="43.2" height="30.24" class="st1"/>
			</g>
		</g>
		<g class="table" id="table-4" transform="translate(127.679,-245.265)" selected="false" available="true">
			<title>Stół do jadalni — podłużny.25</title>
			<g id="shape26-47" transform="translate(305.865,245.385) rotate(90)">
				<title>Arkusz.26</title>
				<path d="M5.22 277.79 L1.44 277.79 A1.44 1.44 0 0 1 2.88 279.23 L2.88 291.47 A1.44 1.44 0 0 1 1.44 292.91 A1.44 1.44
							 0 0 1 0 291.47 L0 279.23 A1.44 1.44 0 0 1 1.44 277.79 A1.44 1.44 0 0 1 2.88 279.23 L2.88 291.47 A1.44
							 1.44 0 0 1 1.44 292.91 L5.22 292.91 L15.48 292.91 L15.48 277.79 L5.22 277.79 Z" class="st1"/>
			</g>
			<g id="shape27-49" transform="translate(325.305,245.385) rotate(90)">
				<title>Arkusz.27</title>
				<path d="M5.22 277.79 L1.44 277.79 A1.44 1.44 0 0 1 2.88 279.23 L2.88 291.47 A1.44 1.44 0 0 1 1.44 292.91 A1.44 1.44
							 0 0 1 0 291.47 L0 279.23 A1.44 1.44 0 0 1 1.44 277.79 A1.44 1.44 0 0 1 2.88 279.23 L2.88 291.47 A1.44
							 1.44 0 0 1 1.44 292.91 L5.22 292.91 L15.48 292.91 L15.48 277.79 L5.22 277.79 Z" class="st1"/>
			</g>
			<g id="shape28-51" transform="translate(-245.385,292.933) rotate(-90)">
				<title>Arkusz.28</title>
				<path d="M5.22 277.79 L1.44 277.79 A1.44 1.44 0 0 1 2.88 279.23 L2.88 291.47 A1.44 1.44 0 0 1 1.44 292.91 A1.44 1.44
							 0 0 1 0 291.47 L0 279.23 A1.44 1.44 0 0 1 1.44 277.79 A1.44 1.44 0 0 1 2.88 279.23 L2.88 291.47 A1.44
							 1.44 0 0 1 1.44 292.91 L5.22 292.91 L15.48 292.91 L15.48 277.79 L5.22 277.79 Z" class="st1"/>
			</g>
			<g id="shape29-53" transform="translate(-264.825,292.933) rotate(-90)">
				<title>Arkusz.29</title>
				<path d="M5.22 277.79 L1.44 277.79 A1.44 1.44 0 0 1 2.88 279.23 L2.88 291.47 A1.44 1.44 0 0 1 1.44 292.91 A1.44 1.44
							 0 0 1 0 291.47 L0 279.23 A1.44 1.44 0 0 1 1.44 277.79 A1.44 1.44 0 0 1 2.88 279.23 L2.88 291.47 A1.44
							 1.44 0 0 1 1.44 292.91 L5.22 292.91 L15.48 292.91 L15.48 277.79 L5.22 277.79 Z" class="st1"/>
			</g>
			<g id="shape30-55" transform="translate(0,-16.2)">
				<title>Arkusz.30</title>
				<path d="M5.22 277.79 L1.44 277.79 A1.44 1.44 0 0 1 2.88 279.23 L2.88 291.47 A1.44 1.44 0 0 1 1.44 292.91 A1.44 1.44
							 0 0 1 0 291.47 L0 279.23 A1.44 1.44 0 0 1 1.44 277.79 A1.44 1.44 0 0 1 2.88 279.23 L2.88 291.47 A1.44
							 1.44 0 0 1 1.44 292.91 L5.22 292.91 L15.48 292.91 L15.48 277.79 L5.22 277.79 Z" class="st1"/>
			</g>
			<g id="shape31-57" transform="translate(60.5077,554.49) rotate(180)">
				<title>Arkusz.31</title>
				<path d="M5.22 277.79 L1.44 277.79 A1.44 1.44 0 0 1 2.88 279.23 L2.88 291.47 A1.44 1.44 0 0 1 1.44 292.91 A1.44 1.44
							 0 0 1 0 291.47 L0 279.23 A1.44 1.44 0 0 1 1.44 277.79 A1.44 1.44 0 0 1 2.88 279.23 L2.88 291.47 A1.44
							 1.44 0 0 1 1.44 292.91 L5.22 292.91 L15.48 292.91 L15.48 277.79 L5.22 277.79 Z" class="st1"/>
			</g>
			<g id="shape32-59" transform="translate(8.64,-8.64)">
				<title>Arkusz.32</title>
				<rect x="0" y="262.665" width="43.2" height="30.24" class="st1"/>
			</g>
		</g>
		<g class="table" id="table-5" transform="translate(127.679,-122.706)" selected="false" available="true">
			<title>Stół do jadalni — podłużny.33</title>
			<g id="shape34-62" transform="translate(305.865,245.385) rotate(90)">
				<title>Arkusz.34</title>
				<path d="M5.22 277.79 L1.44 277.79 A1.44 1.44 0 0 1 2.88 279.23 L2.88 291.47 A1.44 1.44 0 0 1 1.44 292.91 A1.44 1.44
							 0 0 1 0 291.47 L0 279.23 A1.44 1.44 0 0 1 1.44 277.79 A1.44 1.44 0 0 1 2.88 279.23 L2.88 291.47 A1.44
							 1.44 0 0 1 1.44 292.91 L5.22 292.91 L15.48 292.91 L15.48 277.79 L5.22 277.79 Z" class="st1"/>
			</g>
			<g id="shape35-64" transform="translate(325.305,245.385) rotate(90)">
				<title>Arkusz.35</title>
				<path d="M5.22 277.79 L1.44 277.79 A1.44 1.44 0 0 1 2.88 279.23 L2.88 291.47 A1.44 1.44 0 0 1 1.44 292.91 A1.44 1.44
							 0 0 1 0 291.47 L0 279.23 A1.44 1.44 0 0 1 1.44 277.79 A1.44 1.44 0 0 1 2.88 279.23 L2.88 291.47 A1.44
							 1.44 0 0 1 1.44 292.91 L5.22 292.91 L15.48 292.91 L15.48 277.79 L5.22 277.79 Z" class="st1"/>
			</g>
			<g id="shape36-66" transform="translate(-245.385,292.933) rotate(-90)">
				<title>Arkusz.36</title>
				<path d="M5.22 277.79 L1.44 277.79 A1.44 1.44 0 0 1 2.88 279.23 L2.88 291.47 A1.44 1.44 0 0 1 1.44 292.91 A1.44 1.44
							 0 0 1 0 291.47 L0 279.23 A1.44 1.44 0 0 1 1.44 277.79 A1.44 1.44 0 0 1 2.88 279.23 L2.88 291.47 A1.44
							 1.44 0 0 1 1.44 292.91 L5.22 292.91 L15.48 292.91 L15.48 277.79 L5.22 277.79 Z" class="st1"/>
			</g>
			<g id="shape37-68" transform="translate(-264.825,292.933) rotate(-90)">
				<title>Arkusz.37</title>
				<path d="M5.22 277.79 L1.44 277.79 A1.44 1.44 0 0 1 2.88 279.23 L2.88 291.47 A1.44 1.44 0 0 1 1.44 292.91 A1.44 1.44
							 0 0 1 0 291.47 L0 279.23 A1.44 1.44 0 0 1 1.44 277.79 A1.44 1.44 0 0 1 2.88 279.23 L2.88 291.47 A1.44
							 1.44 0 0 1 1.44 292.91 L5.22 292.91 L15.48 292.91 L15.48 277.79 L5.22 277.79 Z" class="st1"/>
			</g>
			<g id="shape38-70" transform="translate(0,-16.2)">
				<title>Arkusz.38</title>
				<path d="M5.22 277.79 L1.44 277.79 A1.44 1.44 0 0 1 2.88 279.23 L2.88 291.47 A1.44 1.44 0 0 1 1.44 292.91 A1.44 1.44
							 0 0 1 0 291.47 L0 279.23 A1.44 1.44 0 0 1 1.44 277.79 A1.44 1.44 0 0 1 2.88 279.23 L2.88 291.47 A1.44
							 1.44 0 0 1 1.44 292.91 L5.22 292.91 L15.48 292.91 L15.48 277.79 L5.22 277.79 Z" class="st1"/>
			</g>
			<g id="shape39-72" transform="translate(60.5077,554.49) rotate(180)">
				<title>Arkusz.39</title>
				<path d="M5.22 277.79 L1.44 277.79 A1.44 1.44 0 0 1 2.88 279.23 L2.88 291.47 A1.44 1.44 0 0 1 1.44 292.91 A1.44 1.44
							 0 0 1 0 291.47 L0 279.23 A1.44 1.44 0 0 1 1.44 277.79 A1.44 1.44 0 0 1 2.88 279.23 L2.88 291.47 A1.44
							 1.44 0 0 1 1.44 292.91 L5.22 292.91 L15.48 292.91 L15.48 277.79 L5.22 277.79 Z" class="st1"/>
			</g>
			<g id="shape40-74" transform="translate(8.64,-8.64)">
				<title>Arkusz.40</title>
				<rect x="0" y="262.665" width="43.2" height="30.24" class="st1"/>
			</g>
		</g>
		<g class="table" id="table-6" transform="translate(127.679,-0.147692)" selected="false" available="true">
			<title>Stół do jadalni — podłużny.41</title>
			<g id="shape42-77" transform="translate(305.865,245.385) rotate(90)">
				<title>Arkusz.42</title>
				<path d="M5.22 277.79 L1.44 277.79 A1.44 1.44 0 0 1 2.88 279.23 L2.88 291.47 A1.44 1.44 0 0 1 1.44 292.91 A1.44 1.44
							 0 0 1 0 291.47 L0 279.23 A1.44 1.44 0 0 1 1.44 277.79 A1.44 1.44 0 0 1 2.88 279.23 L2.88 291.47 A1.44
							 1.44 0 0 1 1.44 292.91 L5.22 292.91 L15.48 292.91 L15.48 277.79 L5.22 277.79 Z" class="st1"/>
			</g>
			<g id="shape43-79" transform="translate(325.305,245.385) rotate(90)">
				<title>Arkusz.43</title>
				<path d="M5.22 277.79 L1.44 277.79 A1.44 1.44 0 0 1 2.88 279.23 L2.88 291.47 A1.44 1.44 0 0 1 1.44 292.91 A1.44 1.44
							 0 0 1 0 291.47 L0 279.23 A1.44 1.44 0 0 1 1.44 277.79 A1.44 1.44 0 0 1 2.88 279.23 L2.88 291.47 A1.44
							 1.44 0 0 1 1.44 292.91 L5.22 292.91 L15.48 292.91 L15.48 277.79 L5.22 277.79 Z" class="st1"/>
			</g>
			<g id="shape44-81" transform="translate(-245.385,292.933) rotate(-90)">
				<title>Arkusz.44</title>
				<path d="M5.22 277.79 L1.44 277.79 A1.44 1.44 0 0 1 2.88 279.23 L2.88 291.47 A1.44 1.44 0 0 1 1.44 292.91 A1.44 1.44
							 0 0 1 0 291.47 L0 279.23 A1.44 1.44 0 0 1 1.44 277.79 A1.44 1.44 0 0 1 2.88 279.23 L2.88 291.47 A1.44
							 1.44 0 0 1 1.44 292.91 L5.22 292.91 L15.48 292.91 L15.48 277.79 L5.22 277.79 Z" class="st1"/>
			</g>
			<g id="shape45-83" transform="translate(-264.825,292.933) rotate(-90)">
				<title>Arkusz.45</title>
				<path d="M5.22 277.79 L1.44 277.79 A1.44 1.44 0 0 1 2.88 279.23 L2.88 291.47 A1.44 1.44 0 0 1 1.44 292.91 A1.44 1.44
							 0 0 1 0 291.47 L0 279.23 A1.44 1.44 0 0 1 1.44 277.79 A1.44 1.44 0 0 1 2.88 279.23 L2.88 291.47 A1.44
							 1.44 0 0 1 1.44 292.91 L5.22 292.91 L15.48 292.91 L15.48 277.79 L5.22 277.79 Z" class="st1"/>
			</g>
			<g id="shape46-85" transform="translate(0,-16.2)">
				<title>Arkusz.46</title>
				<path d="M5.22 277.79 L1.44 277.79 A1.44 1.44 0 0 1 2.88 279.23 L2.88 291.47 A1.44 1.44 0 0 1 1.44 292.91 A1.44 1.44
							 0 0 1 0 291.47 L0 279.23 A1.44 1.44 0 0 1 1.44 277.79 A1.44 1.44 0 0 1 2.88 279.23 L2.88 291.47 A1.44
							 1.44 0 0 1 1.44 292.91 L5.22 292.91 L15.48 292.91 L15.48 277.79 L5.22 277.79 Z" class="st1"/>
			</g>
			<g id="shape47-87" transform="translate(60.5077,554.49) rotate(180)">
				<title>Arkusz.47</title>
				<path d="M5.22 277.79 L1.44 277.79 A1.44 1.44 0 0 1 2.88 279.23 L2.88 291.47 A1.44 1.44 0 0 1 1.44 292.91 A1.44 1.44
							 0 0 1 0 291.47 L0 279.23 A1.44 1.44 0 0 1 1.44 277.79 A1.44 1.44 0 0 1 2.88 279.23 L2.88 291.47 A1.44
							 1.44 0 0 1 1.44 292.91 L5.22 292.91 L15.48 292.91 L15.48 277.79 L5.22 277.79 Z" class="st1"/>
			</g>
			<g id="shape48-89" transform="translate(8.64,-8.64)">
				<title>Arkusz.48</title>
				<rect x="0" y="262.665" width="43.2" height="30.24" class="st1"/>
			</g>
		</g>
		<g class="table" id="table-7" transform="translate(255.238,-245.265)" selected="false" available="true">
			<title>Stół do jadalni — podłużny.49</title>
			<g id="shape50-92" transform="translate(305.865,245.385) rotate(90)">
				<title>Arkusz.50</title>
				<path d="M5.22 277.79 L1.44 277.79 A1.44 1.44 0 0 1 2.88 279.23 L2.88 291.47 A1.44 1.44 0 0 1 1.44 292.91 A1.44 1.44
							 0 0 1 0 291.47 L0 279.23 A1.44 1.44 0 0 1 1.44 277.79 A1.44 1.44 0 0 1 2.88 279.23 L2.88 291.47 A1.44
							 1.44 0 0 1 1.44 292.91 L5.22 292.91 L15.48 292.91 L15.48 277.79 L5.22 277.79 Z" class="st1"/>
			</g>
			<g id="shape51-94" transform="translate(325.305,245.385) rotate(90)">
				<title>Arkusz.51</title>
				<path d="M5.22 277.79 L1.44 277.79 A1.44 1.44 0 0 1 2.88 279.23 L2.88 291.47 A1.44 1.44 0 0 1 1.44 292.91 A1.44 1.44
							 0 0 1 0 291.47 L0 279.23 A1.44 1.44 0 0 1 1.44 277.79 A1.44 1.44 0 0 1 2.88 279.23 L2.88 291.47 A1.44
							 1.44 0 0 1 1.44 292.91 L5.22 292.91 L15.48 292.91 L15.48 277.79 L5.22 277.79 Z" class="st1"/>
			</g>
			<g id="shape52-96" transform="translate(-245.385,292.933) rotate(-90)">
				<title>Arkusz.52</title>
				<path d="M5.22 277.79 L1.44 277.79 A1.44 1.44 0 0 1 2.88 279.23 L2.88 291.47 A1.44 1.44 0 0 1 1.44 292.91 A1.44 1.44
							 0 0 1 0 291.47 L0 279.23 A1.44 1.44 0 0 1 1.44 277.79 A1.44 1.44 0 0 1 2.88 279.23 L2.88 291.47 A1.44
							 1.44 0 0 1 1.44 292.91 L5.22 292.91 L15.48 292.91 L15.48 277.79 L5.22 277.79 Z" class="st1"/>
			</g>
			<g id="shape53-98" transform="translate(-264.825,292.933) rotate(-90)">
				<title>Arkusz.53</title>
				<path d="M5.22 277.79 L1.44 277.79 A1.44 1.44 0 0 1 2.88 279.23 L2.88 291.47 A1.44 1.44 0 0 1 1.44 292.91 A1.44 1.44
							 0 0 1 0 291.47 L0 279.23 A1.44 1.44 0 0 1 1.44 277.79 A1.44 1.44 0 0 1 2.88 279.23 L2.88 291.47 A1.44
							 1.44 0 0 1 1.44 292.91 L5.22 292.91 L15.48 292.91 L15.48 277.79 L5.22 277.79 Z" class="st1"/>
			</g>
			<g id="shape54-100" transform="translate(0,-16.2)">
				<title>Arkusz.54</title>
				<path d="M5.22 277.79 L1.44 277.79 A1.44 1.44 0 0 1 2.88 279.23 L2.88 291.47 A1.44 1.44 0 0 1 1.44 292.91 A1.44 1.44
							 0 0 1 0 291.47 L0 279.23 A1.44 1.44 0 0 1 1.44 277.79 A1.44 1.44 0 0 1 2.88 279.23 L2.88 291.47 A1.44
							 1.44 0 0 1 1.44 292.91 L5.22 292.91 L15.48 292.91 L15.48 277.79 L5.22 277.79 Z" class="st1"/>
			</g>
			<g id="shape55-102" transform="translate(60.5077,554.49) rotate(180)">
				<title>Arkusz.55</title>
				<path d="M5.22 277.79 L1.44 277.79 A1.44 1.44 0 0 1 2.88 279.23 L2.88 291.47 A1.44 1.44 0 0 1 1.44 292.91 A1.44 1.44
							 0 0 1 0 291.47 L0 279.23 A1.44 1.44 0 0 1 1.44 277.79 A1.44 1.44 0 0 1 2.88 279.23 L2.88 291.47 A1.44
							 1.44 0 0 1 1.44 292.91 L5.22 292.91 L15.48 292.91 L15.48 277.79 L5.22 277.79 Z" class="st1"/>
			</g>
			<g id="shape56-104" transform="translate(8.64,-8.64)">
				<title>Arkusz.56</title>
				<rect x="0" y="262.665" width="43.2" height="30.24" class="st1"/>
			</g>
		</g>
		<g class="table" id="table-8" transform="translate(255.238,-122.706)" selected="false" available="true">
			<title>Stół do jadalni — podłużny.57</title>
			<g id="shape58-107" transform="translate(305.865,245.385) rotate(90)">
				<title>Arkusz.58</title>
				<path d="M5.22 277.79 L1.44 277.79 A1.44 1.44 0 0 1 2.88 279.23 L2.88 291.47 A1.44 1.44 0 0 1 1.44 292.91 A1.44 1.44
							 0 0 1 0 291.47 L0 279.23 A1.44 1.44 0 0 1 1.44 277.79 A1.44 1.44 0 0 1 2.88 279.23 L2.88 291.47 A1.44
							 1.44 0 0 1 1.44 292.91 L5.22 292.91 L15.48 292.91 L15.48 277.79 L5.22 277.79 Z" class="st1"/>
			</g>
			<g id="shape59-109" transform="translate(325.305,245.385) rotate(90)">
				<title>Arkusz.59</title>
				<path d="M5.22 277.79 L1.44 277.79 A1.44 1.44 0 0 1 2.88 279.23 L2.88 291.47 A1.44 1.44 0 0 1 1.44 292.91 A1.44 1.44
							 0 0 1 0 291.47 L0 279.23 A1.44 1.44 0 0 1 1.44 277.79 A1.44 1.44 0 0 1 2.88 279.23 L2.88 291.47 A1.44
							 1.44 0 0 1 1.44 292.91 L5.22 292.91 L15.48 292.91 L15.48 277.79 L5.22 277.79 Z" class="st1"/>
			</g>
			<g id="shape60-111" transform="translate(-245.385,292.933) rotate(-90)">
				<title>Arkusz.60</title>
				<path d="M5.22 277.79 L1.44 277.79 A1.44 1.44 0 0 1 2.88 279.23 L2.88 291.47 A1.44 1.44 0 0 1 1.44 292.91 A1.44 1.44
							 0 0 1 0 291.47 L0 279.23 A1.44 1.44 0 0 1 1.44 277.79 A1.44 1.44 0 0 1 2.88 279.23 L2.88 291.47 A1.44
							 1.44 0 0 1 1.44 292.91 L5.22 292.91 L15.48 292.91 L15.48 277.79 L5.22 277.79 Z" class="st1"/>
			</g>
			<g id="shape61-113" transform="translate(-264.825,292.933) rotate(-90)">
				<title>Arkusz.61</title>
				<path d="M5.22 277.79 L1.44 277.79 A1.44 1.44 0 0 1 2.88 279.23 L2.88 291.47 A1.44 1.44 0 0 1 1.44 292.91 A1.44 1.44
							 0 0 1 0 291.47 L0 279.23 A1.44 1.44 0 0 1 1.44 277.79 A1.44 1.44 0 0 1 2.88 279.23 L2.88 291.47 A1.44
							 1.44 0 0 1 1.44 292.91 L5.22 292.91 L15.48 292.91 L15.48 277.79 L5.22 277.79 Z" class="st1"/>
			</g>
			<g id="shape62-115" transform="translate(0,-16.2)">
				<title>Arkusz.62</title>
				<path d="M5.22 277.79 L1.44 277.79 A1.44 1.44 0 0 1 2.88 279.23 L2.88 291.47 A1.44 1.44 0 0 1 1.44 292.91 A1.44 1.44
							 0 0 1 0 291.47 L0 279.23 A1.44 1.44 0 0 1 1.44 277.79 A1.44 1.44 0 0 1 2.88 279.23 L2.88 291.47 A1.44
							 1.44 0 0 1 1.44 292.91 L5.22 292.91 L15.48 292.91 L15.48 277.79 L5.22 277.79 Z" class="st1"/>
			</g>
			<g id="shape63-117" transform="translate(60.5077,554.49) rotate(180)">
				<title>Arkusz.63</title>
				<path d="M5.22 277.79 L1.44 277.79 A1.44 1.44 0 0 1 2.88 279.23 L2.88 291.47 A1.44 1.44 0 0 1 1.44 292.91 A1.44 1.44
							 0 0 1 0 291.47 L0 279.23 A1.44 1.44 0 0 1 1.44 277.79 A1.44 1.44 0 0 1 2.88 279.23 L2.88 291.47 A1.44
							 1.44 0 0 1 1.44 292.91 L5.22 292.91 L15.48 292.91 L15.48 277.79 L5.22 277.79 Z" class="st1"/>
			</g>
			<g id="shape64-119" transform="translate(8.64,-8.64)">
				<title>Arkusz.64</title>
				<rect x="0" y="262.665" width="43.2" height="30.24" class="st1"/>
			</g>
		</g>
		<g class="table" id="table-9" transform="translate(255.238,-0.147692)" selected="false" available="true">
			<title>Stół do jadalni — podłużny.65</title>
			<g id="shape66-122" transform="translate(305.865,245.385) rotate(90)">
				<title>Arkusz.66</title>
				<path d="M5.22 277.79 L1.44 277.79 A1.44 1.44 0 0 1 2.88 279.23 L2.88 291.47 A1.44 1.44 0 0 1 1.44 292.91 A1.44 1.44
							 0 0 1 0 291.47 L0 279.23 A1.44 1.44 0 0 1 1.44 277.79 A1.44 1.44 0 0 1 2.88 279.23 L2.88 291.47 A1.44
							 1.44 0 0 1 1.44 292.91 L5.22 292.91 L15.48 292.91 L15.48 277.79 L5.22 277.79 Z" class="st1"/>
			</g>
			<g id="shape67-124" transform="translate(325.305,245.385) rotate(90)">
				<title>Arkusz.67</title>
				<path d="M5.22 277.79 L1.44 277.79 A1.44 1.44 0 0 1 2.88 279.23 L2.88 291.47 A1.44 1.44 0 0 1 1.44 292.91 A1.44 1.44
							 0 0 1 0 291.47 L0 279.23 A1.44 1.44 0 0 1 1.44 277.79 A1.44 1.44 0 0 1 2.88 279.23 L2.88 291.47 A1.44
							 1.44 0 0 1 1.44 292.91 L5.22 292.91 L15.48 292.91 L15.48 277.79 L5.22 277.79 Z" class="st1"/>
			</g>
			<g id="shape68-126" transform="translate(-245.385,292.933) rotate(-90)">
				<title>Arkusz.68</title>
				<path d="M5.22 277.79 L1.44 277.79 A1.44 1.44 0 0 1 2.88 279.23 L2.88 291.47 A1.44 1.44 0 0 1 1.44 292.91 A1.44 1.44
							 0 0 1 0 291.47 L0 279.23 A1.44 1.44 0 0 1 1.44 277.79 A1.44 1.44 0 0 1 2.88 279.23 L2.88 291.47 A1.44
							 1.44 0 0 1 1.44 292.91 L5.22 292.91 L15.48 292.91 L15.48 277.79 L5.22 277.79 Z" class="st1"/>
			</g>
			<g id="shape69-128" transform="translate(-264.825,292.933) rotate(-90)">
				<title>Arkusz.69</title>
				<path d="M5.22 277.79 L1.44 277.79 A1.44 1.44 0 0 1 2.88 279.23 L2.88 291.47 A1.44 1.44 0 0 1 1.44 292.91 A1.44 1.44
							 0 0 1 0 291.47 L0 279.23 A1.44 1.44 0 0 1 1.44 277.79 A1.44 1.44 0 0 1 2.88 279.23 L2.88 291.47 A1.44
							 1.44 0 0 1 1.44 292.91 L5.22 292.91 L15.48 292.91 L15.48 277.79 L5.22 277.79 Z" class="st1"/>
			</g>
			<g id="shape70-130" transform="translate(0,-16.2)">
				<title>Arkusz.70</title>
				<path d="M5.22 277.79 L1.44 277.79 A1.44 1.44 0 0 1 2.88 279.23 L2.88 291.47 A1.44 1.44 0 0 1 1.44 292.91 A1.44 1.44
							 0 0 1 0 291.47 L0 279.23 A1.44 1.44 0 0 1 1.44 277.79 A1.44 1.44 0 0 1 2.88 279.23 L2.88 291.47 A1.44
							 1.44 0 0 1 1.44 292.91 L5.22 292.91 L15.48 292.91 L15.48 277.79 L5.22 277.79 Z" class="st1"/>
			</g>
			<g id="shape71-132" transform="translate(60.5077,554.49) rotate(180)">
				<title>Arkusz.71</title>
				<path d="M5.22 277.79 L1.44 277.79 A1.44 1.44 0 0 1 2.88 279.23 L2.88 291.47 A1.44 1.44 0 0 1 1.44 292.91 A1.44 1.44
							 0 0 1 0 291.47 L0 279.23 A1.44 1.44 0 0 1 1.44 277.79 A1.44 1.44 0 0 1 2.88 279.23 L2.88 291.47 A1.44
							 1.44 0 0 1 1.44 292.91 L5.22 292.91 L15.48 292.91 L15.48 277.79 L5.22 277.79 Z" class="st1"/>
			</g>
			<g id="shape72-134" transform="translate(8.64,-8.64)">
				<title>Arkusz.72</title>
				<rect x="0" y="262.665" width="43.2" height="30.24" class="st1"/>
			</g>
		</g>
	</g>
</svg>
