<?xml version="1.0" encoding="UTF-8" standalone="no"?>
<!DOCTYPE svg PUBLIC "-//W3C//DTD SVG 1.1//EN" "http://www.w3.org/Graphics/SVG/1.1/DTD/svg11.dtd">
<!-- Wygenerowane w programie Microsoft Visio, SVG Export Rysunek1.svg Strona 1 -->
<svg xmlns="http://www.w3.org/2000/svg" xmlns:xlink="http://www.w3.org/1999/xlink" xmlns:ev="http://www.w3.org/2001/xml-events"
		xmlns:v="http://schemas.microsoft.com/visio/2003/SVGExtensions/" width="4.38703in" height="4.06813in"
		viewBox="0 0 315.866 292.905" xml:space="preserve" color-interpolation-filters="sRGB" class="st2">
	<v:documentProperties v:langID="1045" v:metric="true" v:viewMarkup="false"/>

	<style type="text/css">
	<![CDATA[
		.st1 {fill:#ffffff;stroke:#000000;stroke-linecap:round;stroke-linejoin:round;stroke-width:0.24}
		.st2 {fill:none;fill-rule:evenodd;font-size:12px;overflow:visible;stroke-linecap:square;stroke-miterlimit:3}
	]]>
	</style>

	<g v:mID="0" v:index="1" v:groupContext="foregroundPage">
		<title>Strona 1</title>
		<v:pageProperties v:drawingScale="0.0393701" v:pageScale="0.0393701" v:drawingUnits="24" v:shadowOffsetX="8.50394"
				v:shadowOffsetY="-8.50394"/>
		<v:layer v:name="Wyposażenie ruchome" v:index="0"/>
		<v:layer v:name="Meble" v:index="1"/>
		<g id="group1-1" transform="translate(0.12,-245.265)" v:mID="1" v:groupContext="group" v:layerMember="0;1">
			<v:custProps>
				<v:cp v:nameU="ShapeClass" v:lbl="Klasa kształtu" v:invis="true" v:langID="1045" v:val="VT4(Wyposażenie)"/>
				<v:cp v:nameU="ShapeType" v:lbl="Typ kształtu" v:invis="true" v:langID="1045" v:val="VT4(Meble)"/>
				<v:cp v:nameU="SubShapeType" v:lbl="Typ kształtu podrzędnego" v:invis="true" v:langID="1045" v:val="VT4(Stół)"/>
				<v:cp v:nameU="ID" v:lbl="Identyfikator" v:type="0" v:invis="false" v:langID="1045"/>
				<v:cp v:nameU="Name" v:lbl="Nazwa" v:type="0" v:invis="false" v:langID="1045"/>
				<v:cp v:nameU="Department" v:lbl="Dział" v:type="0" v:invis="false" v:langID="1045"/>
				<v:cp v:nameU="BelongsTo" v:lbl="Przynależność" v:type="0" v:invis="true" v:langID="1045"/>
				<v:cp v:nameU="Modify" v:lbl="Zmodyfikowano" v:type="5" v:invis="false" v:langID="1045"/>
				<v:cp v:nameU="AssetNumber" v:lbl="Numer wyposażenia" v:type="0" v:invis="false" v:langID="1045"/>
				<v:cp v:nameU="SerialNumber" v:lbl="Numer seryjny" v:type="0" v:invis="false" v:langID="1045"/>
				<v:cp v:nameU="ProductDescription" v:lbl="Opis produktu" v:type="0" v:invis="false" v:langID="1045"/>
				<v:cp v:nameU="PurchaseDate" v:lbl="Data zakupu" v:type="5" v:invis="false" v:langID="1045"/>
				<v:cp v:nameU="ProductNumber" v:lbl="Numer produktu" v:type="0" v:langID="1045"/>
				<v:cp v:nameU="BaseElevation" v:lbl="Wysokość podstawy" v:type="2" v:langID="1045"/>
				<v:cp v:nameU="ID" v:lbl="" v:prompt="" v:type="0" v:format="" v:sortKey="" v:invis="false" v:ask="false"
						v:langID="0" v:cal="0" v:val="VT4(idTest)"/>
			</v:custProps>
			<v:userDefs>
				<v:ud v:nameU="3D_type" v:val="VT0(1):26"/>
				<v:ud v:nameU="3D_model_id" v:val="VT4(stół, prostokątny, 6 krzeseł)"/>
				<v:ud v:nameU="visVersion" v:val="VT0(15):26"/>
				<v:ud v:nameU="SolSH" v:val="VT4({5D50005D-537C-4738-9C46-130C74335A6D})"/>
				<v:ud v:nameU="ShapeClass" v:prompt="Wyposażenie" v:val="VT0(2):26"/>
				<v:ud v:nameU="ShapeType" v:prompt="Meble" v:val="VT0(21):26"/>
				<v:ud v:nameU="SubShapeType" v:prompt="Stół" v:val="VT0(81):26"/>
			</v:userDefs>
			<title>Stół do jadalni — podłużny</title>
			<g id="shape2-2" v:mID="2" v:groupContext="shape" v:layerMember="0;1" transform="translate(305.865,245.385) rotate(90)">
				<title>Arkusz.2</title>
				<path d="M5.22 277.79 L1.44 277.79 A1.44 1.44 0 0 1 2.88 279.23 L2.88 291.47 A1.44 1.44 0 0 1 1.44 292.91 A1.44 1.44
							 0 0 1 0 291.47 L0 279.23 A1.44 1.44 0 0 1 1.44 277.79 A1.44 1.44 0 0 1 2.88 279.23 L2.88 291.47 A1.44
							 1.44 0 0 1 1.44 292.91 L5.22 292.91 L15.48 292.91 L15.48 277.79 L5.22 277.79 Z" class="st1"/>
			</g>
			<g id="shape3-4" v:mID="3" v:groupContext="shape" v:layerMember="0;1" transform="translate(325.305,245.385) rotate(90)">
				<title>Arkusz.3</title>
				<path d="M5.22 277.79 L1.44 277.79 A1.44 1.44 0 0 1 2.88 279.23 L2.88 291.47 A1.44 1.44 0 0 1 1.44 292.91 A1.44 1.44
							 0 0 1 0 291.47 L0 279.23 A1.44 1.44 0 0 1 1.44 277.79 A1.44 1.44 0 0 1 2.88 279.23 L2.88 291.47 A1.44
							 1.44 0 0 1 1.44 292.91 L5.22 292.91 L15.48 292.91 L15.48 277.79 L5.22 277.79 Z" class="st1"/>
			</g>
			<g id="shape4-6" v:mID="4" v:groupContext="shape" v:layerMember="0;1"
					transform="translate(-245.385,292.933) rotate(-90)">
				<title>Arkusz.4</title>
				<path d="M5.22 277.79 L1.44 277.79 A1.44 1.44 0 0 1 2.88 279.23 L2.88 291.47 A1.44 1.44 0 0 1 1.44 292.91 A1.44 1.44
							 0 0 1 0 291.47 L0 279.23 A1.44 1.44 0 0 1 1.44 277.79 A1.44 1.44 0 0 1 2.88 279.23 L2.88 291.47 A1.44
							 1.44 0 0 1 1.44 292.91 L5.22 292.91 L15.48 292.91 L15.48 277.79 L5.22 277.79 Z" class="st1"/>
			</g>
			<g id="shape5-8" v:mID="5" v:groupContext="shape" v:layerMember="0;1"
					transform="translate(-264.825,292.933) rotate(-90)">
				<title>Arkusz.5</title>
				<path d="M5.22 277.79 L1.44 277.79 A1.44 1.44 0 0 1 2.88 279.23 L2.88 291.47 A1.44 1.44 0 0 1 1.44 292.91 A1.44 1.44
							 0 0 1 0 291.47 L0 279.23 A1.44 1.44 0 0 1 1.44 277.79 A1.44 1.44 0 0 1 2.88 279.23 L2.88 291.47 A1.44
							 1.44 0 0 1 1.44 292.91 L5.22 292.91 L15.48 292.91 L15.48 277.79 L5.22 277.79 Z" class="st1"/>
			</g>
			<g id="shape6-10" v:mID="6" v:groupContext="shape" v:layerMember="0;1" transform="translate(0,-16.2)">
				<title>Arkusz.6</title>
				<path d="M5.22 277.79 L1.44 277.79 A1.44 1.44 0 0 1 2.88 279.23 L2.88 291.47 A1.44 1.44 0 0 1 1.44 292.91 A1.44 1.44
							 0 0 1 0 291.47 L0 279.23 A1.44 1.44 0 0 1 1.44 277.79 A1.44 1.44 0 0 1 2.88 279.23 L2.88 291.47 A1.44
							 1.44 0 0 1 1.44 292.91 L5.22 292.91 L15.48 292.91 L15.48 277.79 L5.22 277.79 Z" class="st1"/>
			</g>
			<g id="shape7-12" v:mID="7" v:groupContext="shape" v:layerMember="0;1"
					transform="translate(60.5077,554.49) rotate(180)">
				<title>Arkusz.7</title>
				<path d="M5.22 277.79 L1.44 277.79 A1.44 1.44 0 0 1 2.88 279.23 L2.88 291.47 A1.44 1.44 0 0 1 1.44 292.91 A1.44 1.44
							 0 0 1 0 291.47 L0 279.23 A1.44 1.44 0 0 1 1.44 277.79 A1.44 1.44 0 0 1 2.88 279.23 L2.88 291.47 A1.44
							 1.44 0 0 1 1.44 292.91 L5.22 292.91 L15.48 292.91 L15.48 277.79 L5.22 277.79 Z" class="st1"/>
			</g>
			<g id="shape8-14" v:mID="8" v:groupContext="shape" v:layerMember="0;1" transform="translate(8.64,-8.64)">
				<title>Arkusz.8</title>
				<rect x="0" y="262.665" width="43.2" height="30.24" class="st1"/>
			</g>
		</g>
		<g id="group9-16" transform="translate(0.12,-122.706)" v:mID="9" v:groupContext="group" v:layerMember="0;1">
			<v:custProps>
				<v:cp v:nameU="ShapeClass" v:lbl="Klasa kształtu" v:invis="true" v:langID="1045" v:val="VT4(Wyposażenie)"/>
				<v:cp v:nameU="ShapeType" v:lbl="Typ kształtu" v:invis="true" v:langID="1045" v:val="VT4(Meble)"/>
				<v:cp v:nameU="SubShapeType" v:lbl="Typ kształtu podrzędnego" v:invis="true" v:langID="1045" v:val="VT4(Stół)"/>
				<v:cp v:nameU="ID" v:lbl="Identyfikator" v:type="0" v:invis="false" v:langID="1045"/>
				<v:cp v:nameU="Name" v:lbl="Nazwa" v:type="0" v:invis="false" v:langID="1045"/>
				<v:cp v:nameU="Department" v:lbl="Dział" v:type="0" v:invis="false" v:langID="1045"/>
				<v:cp v:nameU="BelongsTo" v:lbl="Przynależność" v:type="0" v:invis="true" v:langID="1045"/>
				<v:cp v:nameU="Modify" v:lbl="Zmodyfikowano" v:type="5" v:invis="false" v:langID="1045"/>
				<v:cp v:nameU="AssetNumber" v:lbl="Numer wyposażenia" v:type="0" v:invis="false" v:langID="1045"/>
				<v:cp v:nameU="SerialNumber" v:lbl="Numer seryjny" v:type="0" v:invis="false" v:langID="1045"/>
				<v:cp v:nameU="ProductDescription" v:lbl="Opis produktu" v:type="0" v:invis="false" v:langID="1045"/>
				<v:cp v:nameU="PurchaseDate" v:lbl="Data zakupu" v:type="5" v:invis="false" v:langID="1045"/>
				<v:cp v:nameU="ProductNumber" v:lbl="Numer produktu" v:type="0" v:langID="1045"/>
				<v:cp v:nameU="BaseElevation" v:lbl="Wysokość podstawy" v:type="2" v:langID="1045"/>
			</v:custProps>
			<v:userDefs>
				<v:ud v:nameU="3D_type" v:val="VT0(1):26"/>
				<v:ud v:nameU="3D_model_id" v:val="VT4(stół, prostokątny, 6 krzeseł)"/>
				<v:ud v:nameU="visVersion" v:val="VT0(15):26"/>
				<v:ud v:nameU="SolSH" v:val="VT4({5D50005D-537C-4738-9C46-130C74335A6D})"/>
				<v:ud v:nameU="ShapeClass" v:prompt="Wyposażenie" v:val="VT0(2):26"/>
				<v:ud v:nameU="ShapeType" v:prompt="Meble" v:val="VT0(21):26"/>
				<v:ud v:nameU="SubShapeType" v:prompt="Stół" v:val="VT0(81):26"/>
			</v:userDefs>
			<title>Stół do jadalni — podłużny.9</title>
			<g id="shape10-17" v:mID="10" v:groupContext="shape" v:layerMember="0;1"
					transform="translate(305.865,245.385) rotate(90)">
				<title>Arkusz.10</title>
				<path d="M5.22 277.79 L1.44 277.79 A1.44 1.44 0 0 1 2.88 279.23 L2.88 291.47 A1.44 1.44 0 0 1 1.44 292.91 A1.44 1.44
							 0 0 1 0 291.47 L0 279.23 A1.44 1.44 0 0 1 1.44 277.79 A1.44 1.44 0 0 1 2.88 279.23 L2.88 291.47 A1.44
							 1.44 0 0 1 1.44 292.91 L5.22 292.91 L15.48 292.91 L15.48 277.79 L5.22 277.79 Z" class="st1"/>
			</g>
			<g id="shape11-19" v:mID="11" v:groupContext="shape" v:layerMember="0;1"
					transform="translate(325.305,245.385) rotate(90)">
				<title>Arkusz.11</title>
				<path d="M5.22 277.79 L1.44 277.79 A1.44 1.44 0 0 1 2.88 279.23 L2.88 291.47 A1.44 1.44 0 0 1 1.44 292.91 A1.44 1.44
							 0 0 1 0 291.47 L0 279.23 A1.44 1.44 0 0 1 1.44 277.79 A1.44 1.44 0 0 1 2.88 279.23 L2.88 291.47 A1.44
							 1.44 0 0 1 1.44 292.91 L5.22 292.91 L15.48 292.91 L15.48 277.79 L5.22 277.79 Z" class="st1"/>
			</g>
			<g id="shape12-21" v:mID="12" v:groupContext="shape" v:layerMember="0;1"
					transform="translate(-245.385,292.933) rotate(-90)">
				<title>Arkusz.12</title>
				<path d="M5.22 277.79 L1.44 277.79 A1.44 1.44 0 0 1 2.88 279.23 L2.88 291.47 A1.44 1.44 0 0 1 1.44 292.91 A1.44 1.44
							 0 0 1 0 291.47 L0 279.23 A1.44 1.44 0 0 1 1.44 277.79 A1.44 1.44 0 0 1 2.88 279.23 L2.88 291.47 A1.44
							 1.44 0 0 1 1.44 292.91 L5.22 292.91 L15.48 292.91 L15.48 277.79 L5.22 277.79 Z" class="st1"/>
			</g>
			<g id="shape13-23" v:mID="13" v:groupContext="shape" v:layerMember="0;1"
					transform="translate(-264.825,292.933) rotate(-90)">
				<title>Arkusz.13</title>
				<path d="M5.22 277.79 L1.44 277.79 A1.44 1.44 0 0 1 2.88 279.23 L2.88 291.47 A1.44 1.44 0 0 1 1.44 292.91 A1.44 1.44
							 0 0 1 0 291.47 L0 279.23 A1.44 1.44 0 0 1 1.44 277.79 A1.44 1.44 0 0 1 2.88 279.23 L2.88 291.47 A1.44
							 1.44 0 0 1 1.44 292.91 L5.22 292.91 L15.48 292.91 L15.48 277.79 L5.22 277.79 Z" class="st1"/>
			</g>
			<g id="shape14-25" v:mID="14" v:groupContext="shape" v:layerMember="0;1" transform="translate(0,-16.2)">
				<title>Arkusz.14</title>
				<path d="M5.22 277.79 L1.44 277.79 A1.44 1.44 0 0 1 2.88 279.23 L2.88 291.47 A1.44 1.44 0 0 1 1.44 292.91 A1.44 1.44
							 0 0 1 0 291.47 L0 279.23 A1.44 1.44 0 0 1 1.44 277.79 A1.44 1.44 0 0 1 2.88 279.23 L2.88 291.47 A1.44
							 1.44 0 0 1 1.44 292.91 L5.22 292.91 L15.48 292.91 L15.48 277.79 L5.22 277.79 Z" class="st1"/>
			</g>
			<g id="shape15-27" v:mID="15" v:groupContext="shape" v:layerMember="0;1"
					transform="translate(60.5077,554.49) rotate(180)">
				<title>Arkusz.15</title>
				<path d="M5.22 277.79 L1.44 277.79 A1.44 1.44 0 0 1 2.88 279.23 L2.88 291.47 A1.44 1.44 0 0 1 1.44 292.91 A1.44 1.44
							 0 0 1 0 291.47 L0 279.23 A1.44 1.44 0 0 1 1.44 277.79 A1.44 1.44 0 0 1 2.88 279.23 L2.88 291.47 A1.44
							 1.44 0 0 1 1.44 292.91 L5.22 292.91 L15.48 292.91 L15.48 277.79 L5.22 277.79 Z" class="st1"/>
			</g>
			<g id="shape16-29" v:mID="16" v:groupContext="shape" v:layerMember="0;1" transform="translate(8.64,-8.64)">
				<title>Arkusz.16</title>
				<rect x="0" y="262.665" width="43.2" height="30.24" class="st1"/>
			</g>
		</g>
		<g id="group17-31" transform="translate(0.12,-0.147692)" v:mID="17" v:groupContext="group" v:layerMember="0;1">
			<v:custProps>
				<v:cp v:nameU="ShapeClass" v:lbl="Klasa kształtu" v:invis="true" v:langID="1045" v:val="VT4(Wyposażenie)"/>
				<v:cp v:nameU="ShapeType" v:lbl="Typ kształtu" v:invis="true" v:langID="1045" v:val="VT4(Meble)"/>
				<v:cp v:nameU="SubShapeType" v:lbl="Typ kształtu podrzędnego" v:invis="true" v:langID="1045" v:val="VT4(Stół)"/>
				<v:cp v:nameU="ID" v:lbl="Identyfikator" v:type="0" v:invis="false" v:langID="1045"/>
				<v:cp v:nameU="Name" v:lbl="Nazwa" v:type="0" v:invis="false" v:langID="1045"/>
				<v:cp v:nameU="Department" v:lbl="Dział" v:type="0" v:invis="false" v:langID="1045"/>
				<v:cp v:nameU="BelongsTo" v:lbl="Przynależność" v:type="0" v:invis="true" v:langID="1045"/>
				<v:cp v:nameU="Modify" v:lbl="Zmodyfikowano" v:type="5" v:invis="false" v:langID="1045"/>
				<v:cp v:nameU="AssetNumber" v:lbl="Numer wyposażenia" v:type="0" v:invis="false" v:langID="1045"/>
				<v:cp v:nameU="SerialNumber" v:lbl="Numer seryjny" v:type="0" v:invis="false" v:langID="1045"/>
				<v:cp v:nameU="ProductDescription" v:lbl="Opis produktu" v:type="0" v:invis="false" v:langID="1045"/>
				<v:cp v:nameU="PurchaseDate" v:lbl="Data zakupu" v:type="5" v:invis="false" v:langID="1045"/>
				<v:cp v:nameU="ProductNumber" v:lbl="Numer produktu" v:type="0" v:langID="1045"/>
				<v:cp v:nameU="BaseElevation" v:lbl="Wysokość podstawy" v:type="2" v:langID="1045"/>
			</v:custProps>
			<v:userDefs>
				<v:ud v:nameU="3D_type" v:val="VT0(1):26"/>
				<v:ud v:nameU="3D_model_id" v:val="VT4(stół, prostokątny, 6 krzeseł)"/>
				<v:ud v:nameU="visVersion" v:val="VT0(15):26"/>
				<v:ud v:nameU="SolSH" v:val="VT4({5D50005D-537C-4738-9C46-130C74335A6D})"/>
				<v:ud v:nameU="ShapeClass" v:prompt="Wyposażenie" v:val="VT0(2):26"/>
				<v:ud v:nameU="ShapeType" v:prompt="Meble" v:val="VT0(21):26"/>
				<v:ud v:nameU="SubShapeType" v:prompt="Stół" v:val="VT0(81):26"/>
			</v:userDefs>
			<title>Stół do jadalni — podłużny.17</title>
			<g id="shape18-32" v:mID="18" v:groupContext="shape" v:layerMember="0;1"
					transform="translate(305.865,245.385) rotate(90)">
				<title>Arkusz.18</title>
				<path d="M5.22 277.79 L1.44 277.79 A1.44 1.44 0 0 1 2.88 279.23 L2.88 291.47 A1.44 1.44 0 0 1 1.44 292.91 A1.44 1.44
							 0 0 1 0 291.47 L0 279.23 A1.44 1.44 0 0 1 1.44 277.79 A1.44 1.44 0 0 1 2.88 279.23 L2.88 291.47 A1.44
							 1.44 0 0 1 1.44 292.91 L5.22 292.91 L15.48 292.91 L15.48 277.79 L5.22 277.79 Z" class="st1"/>
			</g>
			<g id="shape19-34" v:mID="19" v:groupContext="shape" v:layerMember="0;1"
					transform="translate(325.305,245.385) rotate(90)">
				<title>Arkusz.19</title>
				<path d="M5.22 277.79 L1.44 277.79 A1.44 1.44 0 0 1 2.88 279.23 L2.88 291.47 A1.44 1.44 0 0 1 1.44 292.91 A1.44 1.44
							 0 0 1 0 291.47 L0 279.23 A1.44 1.44 0 0 1 1.44 277.79 A1.44 1.44 0 0 1 2.88 279.23 L2.88 291.47 A1.44
							 1.44 0 0 1 1.44 292.91 L5.22 292.91 L15.48 292.91 L15.48 277.79 L5.22 277.79 Z" class="st1"/>
			</g>
			<g id="shape20-36" v:mID="20" v:groupContext="shape" v:layerMember="0;1"
					transform="translate(-245.385,292.933) rotate(-90)">
				<title>Arkusz.20</title>
				<path d="M5.22 277.79 L1.44 277.79 A1.44 1.44 0 0 1 2.88 279.23 L2.88 291.47 A1.44 1.44 0 0 1 1.44 292.91 A1.44 1.44
							 0 0 1 0 291.47 L0 279.23 A1.44 1.44 0 0 1 1.44 277.79 A1.44 1.44 0 0 1 2.88 279.23 L2.88 291.47 A1.44
							 1.44 0 0 1 1.44 292.91 L5.22 292.91 L15.48 292.91 L15.48 277.79 L5.22 277.79 Z" class="st1"/>
			</g>
			<g id="shape21-38" v:mID="21" v:groupContext="shape" v:layerMember="0;1"
					transform="translate(-264.825,292.933) rotate(-90)">
				<title>Arkusz.21</title>
				<path d="M5.22 277.79 L1.44 277.79 A1.44 1.44 0 0 1 2.88 279.23 L2.88 291.47 A1.44 1.44 0 0 1 1.44 292.91 A1.44 1.44
							 0 0 1 0 291.47 L0 279.23 A1.44 1.44 0 0 1 1.44 277.79 A1.44 1.44 0 0 1 2.88 279.23 L2.88 291.47 A1.44
							 1.44 0 0 1 1.44 292.91 L5.22 292.91 L15.48 292.91 L15.48 277.79 L5.22 277.79 Z" class="st1"/>
			</g>
			<g id="shape22-40" v:mID="22" v:groupContext="shape" v:layerMember="0;1" transform="translate(0,-16.2)">
				<title>Arkusz.22</title>
				<path d="M5.22 277.79 L1.44 277.79 A1.44 1.44 0 0 1 2.88 279.23 L2.88 291.47 A1.44 1.44 0 0 1 1.44 292.91 A1.44 1.44
							 0 0 1 0 291.47 L0 279.23 A1.44 1.44 0 0 1 1.44 277.79 A1.44 1.44 0 0 1 2.88 279.23 L2.88 291.47 A1.44
							 1.44 0 0 1 1.44 292.91 L5.22 292.91 L15.48 292.91 L15.48 277.79 L5.22 277.79 Z" class="st1"/>
			</g>
			<g id="shape23-42" v:mID="23" v:groupContext="shape" v:layerMember="0;1"
					transform="translate(60.5077,554.49) rotate(180)">
				<title>Arkusz.23</title>
				<path d="M5.22 277.79 L1.44 277.79 A1.44 1.44 0 0 1 2.88 279.23 L2.88 291.47 A1.44 1.44 0 0 1 1.44 292.91 A1.44 1.44
							 0 0 1 0 291.47 L0 279.23 A1.44 1.44 0 0 1 1.44 277.79 A1.44 1.44 0 0 1 2.88 279.23 L2.88 291.47 A1.44
							 1.44 0 0 1 1.44 292.91 L5.22 292.91 L15.48 292.91 L15.48 277.79 L5.22 277.79 Z" class="st1"/>
			</g>
			<g id="shape24-44" v:mID="24" v:groupContext="shape" v:layerMember="0;1" transform="translate(8.64,-8.64)">
				<title>Arkusz.24</title>
				<rect x="0" y="262.665" width="43.2" height="30.24" class="st1"/>
			</g>
		</g>
		<g id="group25-46" transform="translate(127.679,-245.265)" v:mID="25" v:groupContext="group" v:layerMember="0;1">
			<v:custProps>
				<v:cp v:nameU="ShapeClass" v:lbl="Klasa kształtu" v:invis="true" v:langID="1045" v:val="VT4(Wyposażenie)"/>
				<v:cp v:nameU="ShapeType" v:lbl="Typ kształtu" v:invis="true" v:langID="1045" v:val="VT4(Meble)"/>
				<v:cp v:nameU="SubShapeType" v:lbl="Typ kształtu podrzędnego" v:invis="true" v:langID="1045" v:val="VT4(Stół)"/>
				<v:cp v:nameU="ID" v:lbl="Identyfikator" v:type="0" v:invis="false" v:langID="1045"/>
				<v:cp v:nameU="Name" v:lbl="Nazwa" v:type="0" v:invis="false" v:langID="1045"/>
				<v:cp v:nameU="Department" v:lbl="Dział" v:type="0" v:invis="false" v:langID="1045"/>
				<v:cp v:nameU="BelongsTo" v:lbl="Przynależność" v:type="0" v:invis="true" v:langID="1045"/>
				<v:cp v:nameU="Modify" v:lbl="Zmodyfikowano" v:type="5" v:invis="false" v:langID="1045"/>
				<v:cp v:nameU="AssetNumber" v:lbl="Numer wyposażenia" v:type="0" v:invis="false" v:langID="1045"/>
				<v:cp v:nameU="SerialNumber" v:lbl="Numer seryjny" v:type="0" v:invis="false" v:langID="1045"/>
				<v:cp v:nameU="ProductDescription" v:lbl="Opis produktu" v:type="0" v:invis="false" v:langID="1045"/>
				<v:cp v:nameU="PurchaseDate" v:lbl="Data zakupu" v:type="5" v:invis="false" v:langID="1045"/>
				<v:cp v:nameU="ProductNumber" v:lbl="Numer produktu" v:type="0" v:langID="1045"/>
				<v:cp v:nameU="BaseElevation" v:lbl="Wysokość podstawy" v:type="2" v:langID="1045"/>
			</v:custProps>
			<v:userDefs>
				<v:ud v:nameU="3D_type" v:val="VT0(1):26"/>
				<v:ud v:nameU="3D_model_id" v:val="VT4(stół, prostokątny, 6 krzeseł)"/>
				<v:ud v:nameU="visVersion" v:val="VT0(15):26"/>
				<v:ud v:nameU="SolSH" v:val="VT4({5D50005D-537C-4738-9C46-130C74335A6D})"/>
				<v:ud v:nameU="ShapeClass" v:prompt="Wyposażenie" v:val="VT0(2):26"/>
				<v:ud v:nameU="ShapeType" v:prompt="Meble" v:val="VT0(21):26"/>
				<v:ud v:nameU="SubShapeType" v:prompt="Stół" v:val="VT0(81):26"/>
			</v:userDefs>
			<title>Stół do jadalni — podłużny.25</title>
			<g id="shape26-47" v:mID="26" v:groupContext="shape" v:layerMember="0;1"
					transform="translate(305.865,245.385) rotate(90)">
				<title>Arkusz.26</title>
				<path d="M5.22 277.79 L1.44 277.79 A1.44 1.44 0 0 1 2.88 279.23 L2.88 291.47 A1.44 1.44 0 0 1 1.44 292.91 A1.44 1.44
							 0 0 1 0 291.47 L0 279.23 A1.44 1.44 0 0 1 1.44 277.79 A1.44 1.44 0 0 1 2.88 279.23 L2.88 291.47 A1.44
							 1.44 0 0 1 1.44 292.91 L5.22 292.91 L15.48 292.91 L15.48 277.79 L5.22 277.79 Z" class="st1"/>
			</g>
			<g id="shape27-49" v:mID="27" v:groupContext="shape" v:layerMember="0;1"
					transform="translate(325.305,245.385) rotate(90)">
				<title>Arkusz.27</title>
				<path d="M5.22 277.79 L1.44 277.79 A1.44 1.44 0 0 1 2.88 279.23 L2.88 291.47 A1.44 1.44 0 0 1 1.44 292.91 A1.44 1.44
							 0 0 1 0 291.47 L0 279.23 A1.44 1.44 0 0 1 1.44 277.79 A1.44 1.44 0 0 1 2.88 279.23 L2.88 291.47 A1.44
							 1.44 0 0 1 1.44 292.91 L5.22 292.91 L15.48 292.91 L15.48 277.79 L5.22 277.79 Z" class="st1"/>
			</g>
			<g id="shape28-51" v:mID="28" v:groupContext="shape" v:layerMember="0;1"
					transform="translate(-245.385,292.933) rotate(-90)">
				<title>Arkusz.28</title>
				<path d="M5.22 277.79 L1.44 277.79 A1.44 1.44 0 0 1 2.88 279.23 L2.88 291.47 A1.44 1.44 0 0 1 1.44 292.91 A1.44 1.44
							 0 0 1 0 291.47 L0 279.23 A1.44 1.44 0 0 1 1.44 277.79 A1.44 1.44 0 0 1 2.88 279.23 L2.88 291.47 A1.44
							 1.44 0 0 1 1.44 292.91 L5.22 292.91 L15.48 292.91 L15.48 277.79 L5.22 277.79 Z" class="st1"/>
			</g>
			<g id="shape29-53" v:mID="29" v:groupContext="shape" v:layerMember="0;1"
					transform="translate(-264.825,292.933) rotate(-90)">
				<title>Arkusz.29</title>
				<path d="M5.22 277.79 L1.44 277.79 A1.44 1.44 0 0 1 2.88 279.23 L2.88 291.47 A1.44 1.44 0 0 1 1.44 292.91 A1.44 1.44
							 0 0 1 0 291.47 L0 279.23 A1.44 1.44 0 0 1 1.44 277.79 A1.44 1.44 0 0 1 2.88 279.23 L2.88 291.47 A1.44
							 1.44 0 0 1 1.44 292.91 L5.22 292.91 L15.48 292.91 L15.48 277.79 L5.22 277.79 Z" class="st1"/>
			</g>
			<g id="shape30-55" v:mID="30" v:groupContext="shape" v:layerMember="0;1" transform="translate(0,-16.2)">
				<title>Arkusz.30</title>
				<path d="M5.22 277.79 L1.44 277.79 A1.44 1.44 0 0 1 2.88 279.23 L2.88 291.47 A1.44 1.44 0 0 1 1.44 292.91 A1.44 1.44
							 0 0 1 0 291.47 L0 279.23 A1.44 1.44 0 0 1 1.44 277.79 A1.44 1.44 0 0 1 2.88 279.23 L2.88 291.47 A1.44
							 1.44 0 0 1 1.44 292.91 L5.22 292.91 L15.48 292.91 L15.48 277.79 L5.22 277.79 Z" class="st1"/>
			</g>
			<g id="shape31-57" v:mID="31" v:groupContext="shape" v:layerMember="0;1"
					transform="translate(60.5077,554.49) rotate(180)">
				<title>Arkusz.31</title>
				<path d="M5.22 277.79 L1.44 277.79 A1.44 1.44 0 0 1 2.88 279.23 L2.88 291.47 A1.44 1.44 0 0 1 1.44 292.91 A1.44 1.44
							 0 0 1 0 291.47 L0 279.23 A1.44 1.44 0 0 1 1.44 277.79 A1.44 1.44 0 0 1 2.88 279.23 L2.88 291.47 A1.44
							 1.44 0 0 1 1.44 292.91 L5.22 292.91 L15.48 292.91 L15.48 277.79 L5.22 277.79 Z" class="st1"/>
			</g>
			<g id="shape32-59" v:mID="32" v:groupContext="shape" v:layerMember="0;1" transform="translate(8.64,-8.64)">
				<title>Arkusz.32</title>
				<rect x="0" y="262.665" width="43.2" height="30.24" class="st1"/>
			</g>
		</g>
		<g id="group33-61" transform="translate(127.679,-122.706)" v:mID="33" v:groupContext="group" v:layerMember="0;1">
			<v:custProps>
				<v:cp v:nameU="ShapeClass" v:lbl="Klasa kształtu" v:invis="true" v:langID="1045" v:val="VT4(Wyposażenie)"/>
				<v:cp v:nameU="ShapeType" v:lbl="Typ kształtu" v:invis="true" v:langID="1045" v:val="VT4(Meble)"/>
				<v:cp v:nameU="SubShapeType" v:lbl="Typ kształtu podrzędnego" v:invis="true" v:langID="1045" v:val="VT4(Stół)"/>
				<v:cp v:nameU="ID" v:lbl="Identyfikator" v:type="0" v:invis="false" v:langID="1045"/>
				<v:cp v:nameU="Name" v:lbl="Nazwa" v:type="0" v:invis="false" v:langID="1045"/>
				<v:cp v:nameU="Department" v:lbl="Dział" v:type="0" v:invis="false" v:langID="1045"/>
				<v:cp v:nameU="BelongsTo" v:lbl="Przynależność" v:type="0" v:invis="true" v:langID="1045"/>
				<v:cp v:nameU="Modify" v:lbl="Zmodyfikowano" v:type="5" v:invis="false" v:langID="1045"/>
				<v:cp v:nameU="AssetNumber" v:lbl="Numer wyposażenia" v:type="0" v:invis="false" v:langID="1045"/>
				<v:cp v:nameU="SerialNumber" v:lbl="Numer seryjny" v:type="0" v:invis="false" v:langID="1045"/>
				<v:cp v:nameU="ProductDescription" v:lbl="Opis produktu" v:type="0" v:invis="false" v:langID="1045"/>
				<v:cp v:nameU="PurchaseDate" v:lbl="Data zakupu" v:type="5" v:invis="false" v:langID="1045"/>
				<v:cp v:nameU="ProductNumber" v:lbl="Numer produktu" v:type="0" v:langID="1045"/>
				<v:cp v:nameU="BaseElevation" v:lbl="Wysokość podstawy" v:type="2" v:langID="1045"/>
			</v:custProps>
			<v:userDefs>
				<v:ud v:nameU="3D_type" v:val="VT0(1):26"/>
				<v:ud v:nameU="3D_model_id" v:val="VT4(stół, prostokątny, 6 krzeseł)"/>
				<v:ud v:nameU="visVersion" v:val="VT0(15):26"/>
				<v:ud v:nameU="SolSH" v:val="VT4({5D50005D-537C-4738-9C46-130C74335A6D})"/>
				<v:ud v:nameU="ShapeClass" v:prompt="Wyposażenie" v:val="VT0(2):26"/>
				<v:ud v:nameU="ShapeType" v:prompt="Meble" v:val="VT0(21):26"/>
				<v:ud v:nameU="SubShapeType" v:prompt="Stół" v:val="VT0(81):26"/>
			</v:userDefs>
			<title>Stół do jadalni — podłużny.33</title>
			<g id="shape34-62" v:mID="34" v:groupContext="shape" v:layerMember="0;1"
					transform="translate(305.865,245.385) rotate(90)">
				<title>Arkusz.34</title>
				<path d="M5.22 277.79 L1.44 277.79 A1.44 1.44 0 0 1 2.88 279.23 L2.88 291.47 A1.44 1.44 0 0 1 1.44 292.91 A1.44 1.44
							 0 0 1 0 291.47 L0 279.23 A1.44 1.44 0 0 1 1.44 277.79 A1.44 1.44 0 0 1 2.88 279.23 L2.88 291.47 A1.44
							 1.44 0 0 1 1.44 292.91 L5.22 292.91 L15.48 292.91 L15.48 277.79 L5.22 277.79 Z" class="st1"/>
			</g>
			<g id="shape35-64" v:mID="35" v:groupContext="shape" v:layerMember="0;1"
					transform="translate(325.305,245.385) rotate(90)">
				<title>Arkusz.35</title>
				<path d="M5.22 277.79 L1.44 277.79 A1.44 1.44 0 0 1 2.88 279.23 L2.88 291.47 A1.44 1.44 0 0 1 1.44 292.91 A1.44 1.44
							 0 0 1 0 291.47 L0 279.23 A1.44 1.44 0 0 1 1.44 277.79 A1.44 1.44 0 0 1 2.88 279.23 L2.88 291.47 A1.44
							 1.44 0 0 1 1.44 292.91 L5.22 292.91 L15.48 292.91 L15.48 277.79 L5.22 277.79 Z" class="st1"/>
			</g>
			<g id="shape36-66" v:mID="36" v:groupContext="shape" v:layerMember="0;1"
					transform="translate(-245.385,292.933) rotate(-90)">
				<title>Arkusz.36</title>
				<path d="M5.22 277.79 L1.44 277.79 A1.44 1.44 0 0 1 2.88 279.23 L2.88 291.47 A1.44 1.44 0 0 1 1.44 292.91 A1.44 1.44
							 0 0 1 0 291.47 L0 279.23 A1.44 1.44 0 0 1 1.44 277.79 A1.44 1.44 0 0 1 2.88 279.23 L2.88 291.47 A1.44
							 1.44 0 0 1 1.44 292.91 L5.22 292.91 L15.48 292.91 L15.48 277.79 L5.22 277.79 Z" class="st1"/>
			</g>
			<g id="shape37-68" v:mID="37" v:groupContext="shape" v:layerMember="0;1"
					transform="translate(-264.825,292.933) rotate(-90)">
				<title>Arkusz.37</title>
				<path d="M5.22 277.79 L1.44 277.79 A1.44 1.44 0 0 1 2.88 279.23 L2.88 291.47 A1.44 1.44 0 0 1 1.44 292.91 A1.44 1.44
							 0 0 1 0 291.47 L0 279.23 A1.44 1.44 0 0 1 1.44 277.79 A1.44 1.44 0 0 1 2.88 279.23 L2.88 291.47 A1.44
							 1.44 0 0 1 1.44 292.91 L5.22 292.91 L15.48 292.91 L15.48 277.79 L5.22 277.79 Z" class="st1"/>
			</g>
			<g id="shape38-70" v:mID="38" v:groupContext="shape" v:layerMember="0;1" transform="translate(0,-16.2)">
				<title>Arkusz.38</title>
				<path d="M5.22 277.79 L1.44 277.79 A1.44 1.44 0 0 1 2.88 279.23 L2.88 291.47 A1.44 1.44 0 0 1 1.44 292.91 A1.44 1.44
							 0 0 1 0 291.47 L0 279.23 A1.44 1.44 0 0 1 1.44 277.79 A1.44 1.44 0 0 1 2.88 279.23 L2.88 291.47 A1.44
							 1.44 0 0 1 1.44 292.91 L5.22 292.91 L15.48 292.91 L15.48 277.79 L5.22 277.79 Z" class="st1"/>
			</g>
			<g id="shape39-72" v:mID="39" v:groupContext="shape" v:layerMember="0;1"
					transform="translate(60.5077,554.49) rotate(180)">
				<title>Arkusz.39</title>
				<path d="M5.22 277.79 L1.44 277.79 A1.44 1.44 0 0 1 2.88 279.23 L2.88 291.47 A1.44 1.44 0 0 1 1.44 292.91 A1.44 1.44
							 0 0 1 0 291.47 L0 279.23 A1.44 1.44 0 0 1 1.44 277.79 A1.44 1.44 0 0 1 2.88 279.23 L2.88 291.47 A1.44
							 1.44 0 0 1 1.44 292.91 L5.22 292.91 L15.48 292.91 L15.48 277.79 L5.22 277.79 Z" class="st1"/>
			</g>
			<g id="shape40-74" v:mID="40" v:groupContext="shape" v:layerMember="0;1" transform="translate(8.64,-8.64)">
				<title>Arkusz.40</title>
				<rect x="0" y="262.665" width="43.2" height="30.24" class="st1"/>
			</g>
		</g>
		<g id="group41-76" transform="translate(127.679,-0.147692)" v:mID="41" v:groupContext="group" v:layerMember="0;1">
			<v:custProps>
				<v:cp v:nameU="ShapeClass" v:lbl="Klasa kształtu" v:invis="true" v:langID="1045" v:val="VT4(Wyposażenie)"/>
				<v:cp v:nameU="ShapeType" v:lbl="Typ kształtu" v:invis="true" v:langID="1045" v:val="VT4(Meble)"/>
				<v:cp v:nameU="SubShapeType" v:lbl="Typ kształtu podrzędnego" v:invis="true" v:langID="1045" v:val="VT4(Stół)"/>
				<v:cp v:nameU="ID" v:lbl="Identyfikator" v:type="0" v:invis="false" v:langID="1045"/>
				<v:cp v:nameU="Name" v:lbl="Nazwa" v:type="0" v:invis="false" v:langID="1045"/>
				<v:cp v:nameU="Department" v:lbl="Dział" v:type="0" v:invis="false" v:langID="1045"/>
				<v:cp v:nameU="BelongsTo" v:lbl="Przynależność" v:type="0" v:invis="true" v:langID="1045"/>
				<v:cp v:nameU="Modify" v:lbl="Zmodyfikowano" v:type="5" v:invis="false" v:langID="1045"/>
				<v:cp v:nameU="AssetNumber" v:lbl="Numer wyposażenia" v:type="0" v:invis="false" v:langID="1045"/>
				<v:cp v:nameU="SerialNumber" v:lbl="Numer seryjny" v:type="0" v:invis="false" v:langID="1045"/>
				<v:cp v:nameU="ProductDescription" v:lbl="Opis produktu" v:type="0" v:invis="false" v:langID="1045"/>
				<v:cp v:nameU="PurchaseDate" v:lbl="Data zakupu" v:type="5" v:invis="false" v:langID="1045"/>
				<v:cp v:nameU="ProductNumber" v:lbl="Numer produktu" v:type="0" v:langID="1045"/>
				<v:cp v:nameU="BaseElevation" v:lbl="Wysokość podstawy" v:type="2" v:langID="1045"/>
			</v:custProps>
			<v:userDefs>
				<v:ud v:nameU="3D_type" v:val="VT0(1):26"/>
				<v:ud v:nameU="3D_model_id" v:val="VT4(stół, prostokątny, 6 krzeseł)"/>
				<v:ud v:nameU="visVersion" v:val="VT0(15):26"/>
				<v:ud v:nameU="SolSH" v:val="VT4({5D50005D-537C-4738-9C46-130C74335A6D})"/>
				<v:ud v:nameU="ShapeClass" v:prompt="Wyposażenie" v:val="VT0(2):26"/>
				<v:ud v:nameU="ShapeType" v:prompt="Meble" v:val="VT0(21):26"/>
				<v:ud v:nameU="SubShapeType" v:prompt="Stół" v:val="VT0(81):26"/>
			</v:userDefs>
			<title>Stół do jadalni — podłużny.41</title>
			<g id="shape42-77" v:mID="42" v:groupContext="shape" v:layerMember="0;1"
					transform="translate(305.865,245.385) rotate(90)">
				<title>Arkusz.42</title>
				<path d="M5.22 277.79 L1.44 277.79 A1.44 1.44 0 0 1 2.88 279.23 L2.88 291.47 A1.44 1.44 0 0 1 1.44 292.91 A1.44 1.44
							 0 0 1 0 291.47 L0 279.23 A1.44 1.44 0 0 1 1.44 277.79 A1.44 1.44 0 0 1 2.88 279.23 L2.88 291.47 A1.44
							 1.44 0 0 1 1.44 292.91 L5.22 292.91 L15.48 292.91 L15.48 277.79 L5.22 277.79 Z" class="st1"/>
			</g>
			<g id="shape43-79" v:mID="43" v:groupContext="shape" v:layerMember="0;1"
					transform="translate(325.305,245.385) rotate(90)">
				<title>Arkusz.43</title>
				<path d="M5.22 277.79 L1.44 277.79 A1.44 1.44 0 0 1 2.88 279.23 L2.88 291.47 A1.44 1.44 0 0 1 1.44 292.91 A1.44 1.44
							 0 0 1 0 291.47 L0 279.23 A1.44 1.44 0 0 1 1.44 277.79 A1.44 1.44 0 0 1 2.88 279.23 L2.88 291.47 A1.44
							 1.44 0 0 1 1.44 292.91 L5.22 292.91 L15.48 292.91 L15.48 277.79 L5.22 277.79 Z" class="st1"/>
			</g>
			<g id="shape44-81" v:mID="44" v:groupContext="shape" v:layerMember="0;1"
					transform="translate(-245.385,292.933) rotate(-90)">
				<title>Arkusz.44</title>
				<path d="M5.22 277.79 L1.44 277.79 A1.44 1.44 0 0 1 2.88 279.23 L2.88 291.47 A1.44 1.44 0 0 1 1.44 292.91 A1.44 1.44
							 0 0 1 0 291.47 L0 279.23 A1.44 1.44 0 0 1 1.44 277.79 A1.44 1.44 0 0 1 2.88 279.23 L2.88 291.47 A1.44
							 1.44 0 0 1 1.44 292.91 L5.22 292.91 L15.48 292.91 L15.48 277.79 L5.22 277.79 Z" class="st1"/>
			</g>
			<g id="shape45-83" v:mID="45" v:groupContext="shape" v:layerMember="0;1"
					transform="translate(-264.825,292.933) rotate(-90)">
				<title>Arkusz.45</title>
				<path d="M5.22 277.79 L1.44 277.79 A1.44 1.44 0 0 1 2.88 279.23 L2.88 291.47 A1.44 1.44 0 0 1 1.44 292.91 A1.44 1.44
							 0 0 1 0 291.47 L0 279.23 A1.44 1.44 0 0 1 1.44 277.79 A1.44 1.44 0 0 1 2.88 279.23 L2.88 291.47 A1.44
							 1.44 0 0 1 1.44 292.91 L5.22 292.91 L15.48 292.91 L15.48 277.79 L5.22 277.79 Z" class="st1"/>
			</g>
			<g id="shape46-85" v:mID="46" v:groupContext="shape" v:layerMember="0;1" transform="translate(0,-16.2)">
				<title>Arkusz.46</title>
				<path d="M5.22 277.79 L1.44 277.79 A1.44 1.44 0 0 1 2.88 279.23 L2.88 291.47 A1.44 1.44 0 0 1 1.44 292.91 A1.44 1.44
							 0 0 1 0 291.47 L0 279.23 A1.44 1.44 0 0 1 1.44 277.79 A1.44 1.44 0 0 1 2.88 279.23 L2.88 291.47 A1.44
							 1.44 0 0 1 1.44 292.91 L5.22 292.91 L15.48 292.91 L15.48 277.79 L5.22 277.79 Z" class="st1"/>
			</g>
			<g id="shape47-87" v:mID="47" v:groupContext="shape" v:layerMember="0;1"
					transform="translate(60.5077,554.49) rotate(180)">
				<title>Arkusz.47</title>
				<path d="M5.22 277.79 L1.44 277.79 A1.44 1.44 0 0 1 2.88 279.23 L2.88 291.47 A1.44 1.44 0 0 1 1.44 292.91 A1.44 1.44
							 0 0 1 0 291.47 L0 279.23 A1.44 1.44 0 0 1 1.44 277.79 A1.44 1.44 0 0 1 2.88 279.23 L2.88 291.47 A1.44
							 1.44 0 0 1 1.44 292.91 L5.22 292.91 L15.48 292.91 L15.48 277.79 L5.22 277.79 Z" class="st1"/>
			</g>
			<g id="shape48-89" v:mID="48" v:groupContext="shape" v:layerMember="0;1" transform="translate(8.64,-8.64)">
				<title>Arkusz.48</title>
				<rect x="0" y="262.665" width="43.2" height="30.24" class="st1"/>
			</g>
		</g>
		<g id="group49-91" transform="translate(255.238,-245.265)" v:mID="49" v:groupContext="group" v:layerMember="0;1">
			<v:custProps>
				<v:cp v:nameU="ShapeClass" v:lbl="Klasa kształtu" v:invis="true" v:langID="1045" v:val="VT4(Wyposażenie)"/>
				<v:cp v:nameU="ShapeType" v:lbl="Typ kształtu" v:invis="true" v:langID="1045" v:val="VT4(Meble)"/>
				<v:cp v:nameU="SubShapeType" v:lbl="Typ kształtu podrzędnego" v:invis="true" v:langID="1045" v:val="VT4(Stół)"/>
				<v:cp v:nameU="ID" v:lbl="Identyfikator" v:type="0" v:invis="false" v:langID="1045"/>
				<v:cp v:nameU="Name" v:lbl="Nazwa" v:type="0" v:invis="false" v:langID="1045"/>
				<v:cp v:nameU="Department" v:lbl="Dział" v:type="0" v:invis="false" v:langID="1045"/>
				<v:cp v:nameU="BelongsTo" v:lbl="Przynależność" v:type="0" v:invis="true" v:langID="1045"/>
				<v:cp v:nameU="Modify" v:lbl="Zmodyfikowano" v:type="5" v:invis="false" v:langID="1045"/>
				<v:cp v:nameU="AssetNumber" v:lbl="Numer wyposażenia" v:type="0" v:invis="false" v:langID="1045"/>
				<v:cp v:nameU="SerialNumber" v:lbl="Numer seryjny" v:type="0" v:invis="false" v:langID="1045"/>
				<v:cp v:nameU="ProductDescription" v:lbl="Opis produktu" v:type="0" v:invis="false" v:langID="1045"/>
				<v:cp v:nameU="PurchaseDate" v:lbl="Data zakupu" v:type="5" v:invis="false" v:langID="1045"/>
				<v:cp v:nameU="ProductNumber" v:lbl="Numer produktu" v:type="0" v:langID="1045"/>
				<v:cp v:nameU="BaseElevation" v:lbl="Wysokość podstawy" v:type="2" v:langID="1045"/>
			</v:custProps>
			<v:userDefs>
				<v:ud v:nameU="3D_type" v:val="VT0(1):26"/>
				<v:ud v:nameU="3D_model_id" v:val="VT4(stół, prostokątny, 6 krzeseł)"/>
				<v:ud v:nameU="visVersion" v:val="VT0(15):26"/>
				<v:ud v:nameU="SolSH" v:val="VT4({5D50005D-537C-4738-9C46-130C74335A6D})"/>
				<v:ud v:nameU="ShapeClass" v:prompt="Wyposażenie" v:val="VT0(2):26"/>
				<v:ud v:nameU="ShapeType" v:prompt="Meble" v:val="VT0(21):26"/>
				<v:ud v:nameU="SubShapeType" v:prompt="Stół" v:val="VT0(81):26"/>
			</v:userDefs>
			<title>Stół do jadalni — podłużny.49</title>
			<g id="shape50-92" v:mID="50" v:groupContext="shape" v:layerMember="0;1"
					transform="translate(305.865,245.385) rotate(90)">
				<title>Arkusz.50</title>
				<path d="M5.22 277.79 L1.44 277.79 A1.44 1.44 0 0 1 2.88 279.23 L2.88 291.47 A1.44 1.44 0 0 1 1.44 292.91 A1.44 1.44
							 0 0 1 0 291.47 L0 279.23 A1.44 1.44 0 0 1 1.44 277.79 A1.44 1.44 0 0 1 2.88 279.23 L2.88 291.47 A1.44
							 1.44 0 0 1 1.44 292.91 L5.22 292.91 L15.48 292.91 L15.48 277.79 L5.22 277.79 Z" class="st1"/>
			</g>
			<g id="shape51-94" v:mID="51" v:groupContext="shape" v:layerMember="0;1"
					transform="translate(325.305,245.385) rotate(90)">
				<title>Arkusz.51</title>
				<path d="M5.22 277.79 L1.44 277.79 A1.44 1.44 0 0 1 2.88 279.23 L2.88 291.47 A1.44 1.44 0 0 1 1.44 292.91 A1.44 1.44
							 0 0 1 0 291.47 L0 279.23 A1.44 1.44 0 0 1 1.44 277.79 A1.44 1.44 0 0 1 2.88 279.23 L2.88 291.47 A1.44
							 1.44 0 0 1 1.44 292.91 L5.22 292.91 L15.48 292.91 L15.48 277.79 L5.22 277.79 Z" class="st1"/>
			</g>
			<g id="shape52-96" v:mID="52" v:groupContext="shape" v:layerMember="0;1"
					transform="translate(-245.385,292.933) rotate(-90)">
				<title>Arkusz.52</title>
				<path d="M5.22 277.79 L1.44 277.79 A1.44 1.44 0 0 1 2.88 279.23 L2.88 291.47 A1.44 1.44 0 0 1 1.44 292.91 A1.44 1.44
							 0 0 1 0 291.47 L0 279.23 A1.44 1.44 0 0 1 1.44 277.79 A1.44 1.44 0 0 1 2.88 279.23 L2.88 291.47 A1.44
							 1.44 0 0 1 1.44 292.91 L5.22 292.91 L15.48 292.91 L15.48 277.79 L5.22 277.79 Z" class="st1"/>
			</g>
			<g id="shape53-98" v:mID="53" v:groupContext="shape" v:layerMember="0;1"
					transform="translate(-264.825,292.933) rotate(-90)">
				<title>Arkusz.53</title>
				<path d="M5.22 277.79 L1.44 277.79 A1.44 1.44 0 0 1 2.88 279.23 L2.88 291.47 A1.44 1.44 0 0 1 1.44 292.91 A1.44 1.44
							 0 0 1 0 291.47 L0 279.23 A1.44 1.44 0 0 1 1.44 277.79 A1.44 1.44 0 0 1 2.88 279.23 L2.88 291.47 A1.44
							 1.44 0 0 1 1.44 292.91 L5.22 292.91 L15.48 292.91 L15.48 277.79 L5.22 277.79 Z" class="st1"/>
			</g>
			<g id="shape54-100" v:mID="54" v:groupContext="shape" v:layerMember="0;1" transform="translate(0,-16.2)">
				<title>Arkusz.54</title>
				<path d="M5.22 277.79 L1.44 277.79 A1.44 1.44 0 0 1 2.88 279.23 L2.88 291.47 A1.44 1.44 0 0 1 1.44 292.91 A1.44 1.44
							 0 0 1 0 291.47 L0 279.23 A1.44 1.44 0 0 1 1.44 277.79 A1.44 1.44 0 0 1 2.88 279.23 L2.88 291.47 A1.44
							 1.44 0 0 1 1.44 292.91 L5.22 292.91 L15.48 292.91 L15.48 277.79 L5.22 277.79 Z" class="st1"/>
			</g>
			<g id="shape55-102" v:mID="55" v:groupContext="shape" v:layerMember="0;1"
					transform="translate(60.5077,554.49) rotate(180)">
				<title>Arkusz.55</title>
				<path d="M5.22 277.79 L1.44 277.79 A1.44 1.44 0 0 1 2.88 279.23 L2.88 291.47 A1.44 1.44 0 0 1 1.44 292.91 A1.44 1.44
							 0 0 1 0 291.47 L0 279.23 A1.44 1.44 0 0 1 1.44 277.79 A1.44 1.44 0 0 1 2.88 279.23 L2.88 291.47 A1.44
							 1.44 0 0 1 1.44 292.91 L5.22 292.91 L15.48 292.91 L15.48 277.79 L5.22 277.79 Z" class="st1"/>
			</g>
			<g id="shape56-104" v:mID="56" v:groupContext="shape" v:layerMember="0;1" transform="translate(8.64,-8.64)">
				<title>Arkusz.56</title>
				<rect x="0" y="262.665" width="43.2" height="30.24" class="st1"/>
			</g>
		</g>
		<g id="group57-106" transform="translate(255.238,-122.706)" v:mID="57" v:groupContext="group" v:layerMember="0;1">
			<v:custProps>
				<v:cp v:nameU="ShapeClass" v:lbl="Klasa kształtu" v:invis="true" v:langID="1045" v:val="VT4(Wyposażenie)"/>
				<v:cp v:nameU="ShapeType" v:lbl="Typ kształtu" v:invis="true" v:langID="1045" v:val="VT4(Meble)"/>
				<v:cp v:nameU="SubShapeType" v:lbl="Typ kształtu podrzędnego" v:invis="true" v:langID="1045" v:val="VT4(Stół)"/>
				<v:cp v:nameU="ID" v:lbl="Identyfikator" v:type="0" v:invis="false" v:langID="1045"/>
				<v:cp v:nameU="Name" v:lbl="Nazwa" v:type="0" v:invis="false" v:langID="1045"/>
				<v:cp v:nameU="Department" v:lbl="Dział" v:type="0" v:invis="false" v:langID="1045"/>
				<v:cp v:nameU="BelongsTo" v:lbl="Przynależność" v:type="0" v:invis="true" v:langID="1045"/>
				<v:cp v:nameU="Modify" v:lbl="Zmodyfikowano" v:type="5" v:invis="false" v:langID="1045"/>
				<v:cp v:nameU="AssetNumber" v:lbl="Numer wyposażenia" v:type="0" v:invis="false" v:langID="1045"/>
				<v:cp v:nameU="SerialNumber" v:lbl="Numer seryjny" v:type="0" v:invis="false" v:langID="1045"/>
				<v:cp v:nameU="ProductDescription" v:lbl="Opis produktu" v:type="0" v:invis="false" v:langID="1045"/>
				<v:cp v:nameU="PurchaseDate" v:lbl="Data zakupu" v:type="5" v:invis="false" v:langID="1045"/>
				<v:cp v:nameU="ProductNumber" v:lbl="Numer produktu" v:type="0" v:langID="1045"/>
				<v:cp v:nameU="BaseElevation" v:lbl="Wysokość podstawy" v:type="2" v:langID="1045"/>
			</v:custProps>
			<v:userDefs>
				<v:ud v:nameU="3D_type" v:val="VT0(1):26"/>
				<v:ud v:nameU="3D_model_id" v:val="VT4(stół, prostokątny, 6 krzeseł)"/>
				<v:ud v:nameU="visVersion" v:val="VT0(15):26"/>
				<v:ud v:nameU="SolSH" v:val="VT4({5D50005D-537C-4738-9C46-130C74335A6D})"/>
				<v:ud v:nameU="ShapeClass" v:prompt="Wyposażenie" v:val="VT0(2):26"/>
				<v:ud v:nameU="ShapeType" v:prompt="Meble" v:val="VT0(21):26"/>
				<v:ud v:nameU="SubShapeType" v:prompt="Stół" v:val="VT0(81):26"/>
			</v:userDefs>
			<title>Stół do jadalni — podłużny.57</title>
			<g id="shape58-107" v:mID="58" v:groupContext="shape" v:layerMember="0;1"
					transform="translate(305.865,245.385) rotate(90)">
				<title>Arkusz.58</title>
				<path d="M5.22 277.79 L1.44 277.79 A1.44 1.44 0 0 1 2.88 279.23 L2.88 291.47 A1.44 1.44 0 0 1 1.44 292.91 A1.44 1.44
							 0 0 1 0 291.47 L0 279.23 A1.44 1.44 0 0 1 1.44 277.79 A1.44 1.44 0 0 1 2.88 279.23 L2.88 291.47 A1.44
							 1.44 0 0 1 1.44 292.91 L5.22 292.91 L15.48 292.91 L15.48 277.79 L5.22 277.79 Z" class="st1"/>
			</g>
			<g id="shape59-109" v:mID="59" v:groupContext="shape" v:layerMember="0;1"
					transform="translate(325.305,245.385) rotate(90)">
				<title>Arkusz.59</title>
				<path d="M5.22 277.79 L1.44 277.79 A1.44 1.44 0 0 1 2.88 279.23 L2.88 291.47 A1.44 1.44 0 0 1 1.44 292.91 A1.44 1.44
							 0 0 1 0 291.47 L0 279.23 A1.44 1.44 0 0 1 1.44 277.79 A1.44 1.44 0 0 1 2.88 279.23 L2.88 291.47 A1.44
							 1.44 0 0 1 1.44 292.91 L5.22 292.91 L15.48 292.91 L15.48 277.79 L5.22 277.79 Z" class="st1"/>
			</g>
			<g id="shape60-111" v:mID="60" v:groupContext="shape" v:layerMember="0;1"
					transform="translate(-245.385,292.933) rotate(-90)">
				<title>Arkusz.60</title>
				<path d="M5.22 277.79 L1.44 277.79 A1.44 1.44 0 0 1 2.88 279.23 L2.88 291.47 A1.44 1.44 0 0 1 1.44 292.91 A1.44 1.44
							 0 0 1 0 291.47 L0 279.23 A1.44 1.44 0 0 1 1.44 277.79 A1.44 1.44 0 0 1 2.88 279.23 L2.88 291.47 A1.44
							 1.44 0 0 1 1.44 292.91 L5.22 292.91 L15.48 292.91 L15.48 277.79 L5.22 277.79 Z" class="st1"/>
			</g>
			<g id="shape61-113" v:mID="61" v:groupContext="shape" v:layerMember="0;1"
					transform="translate(-264.825,292.933) rotate(-90)">
				<title>Arkusz.61</title>
				<path d="M5.22 277.79 L1.44 277.79 A1.44 1.44 0 0 1 2.88 279.23 L2.88 291.47 A1.44 1.44 0 0 1 1.44 292.91 A1.44 1.44
							 0 0 1 0 291.47 L0 279.23 A1.44 1.44 0 0 1 1.44 277.79 A1.44 1.44 0 0 1 2.88 279.23 L2.88 291.47 A1.44
							 1.44 0 0 1 1.44 292.91 L5.22 292.91 L15.48 292.91 L15.48 277.79 L5.22 277.79 Z" class="st1"/>
			</g>
			<g id="shape62-115" v:mID="62" v:groupContext="shape" v:layerMember="0;1" transform="translate(0,-16.2)">
				<title>Arkusz.62</title>
				<path d="M5.22 277.79 L1.44 277.79 A1.44 1.44 0 0 1 2.88 279.23 L2.88 291.47 A1.44 1.44 0 0 1 1.44 292.91 A1.44 1.44
							 0 0 1 0 291.47 L0 279.23 A1.44 1.44 0 0 1 1.44 277.79 A1.44 1.44 0 0 1 2.88 279.23 L2.88 291.47 A1.44
							 1.44 0 0 1 1.44 292.91 L5.22 292.91 L15.48 292.91 L15.48 277.79 L5.22 277.79 Z" class="st1"/>
			</g>
			<g id="shape63-117" v:mID="63" v:groupContext="shape" v:layerMember="0;1"
					transform="translate(60.5077,554.49) rotate(180)">
				<title>Arkusz.63</title>
				<path d="M5.22 277.79 L1.44 277.79 A1.44 1.44 0 0 1 2.88 279.23 L2.88 291.47 A1.44 1.44 0 0 1 1.44 292.91 A1.44 1.44
							 0 0 1 0 291.47 L0 279.23 A1.44 1.44 0 0 1 1.44 277.79 A1.44 1.44 0 0 1 2.88 279.23 L2.88 291.47 A1.44
							 1.44 0 0 1 1.44 292.91 L5.22 292.91 L15.48 292.91 L15.48 277.79 L5.22 277.79 Z" class="st1"/>
			</g>
			<g id="shape64-119" v:mID="64" v:groupContext="shape" v:layerMember="0;1" transform="translate(8.64,-8.64)">
				<title>Arkusz.64</title>
				<rect x="0" y="262.665" width="43.2" height="30.24" class="st1"/>
			</g>
		</g>
		<g id="group65-121" transform="translate(255.238,-0.147692)" v:mID="65" v:groupContext="group" v:layerMember="0;1">
			<v:custProps>
				<v:cp v:nameU="ShapeClass" v:lbl="Klasa kształtu" v:invis="true" v:langID="1045" v:val="VT4(Wyposażenie)"/>
				<v:cp v:nameU="ShapeType" v:lbl="Typ kształtu" v:invis="true" v:langID="1045" v:val="VT4(Meble)"/>
				<v:cp v:nameU="SubShapeType" v:lbl="Typ kształtu podrzędnego" v:invis="true" v:langID="1045" v:val="VT4(Stół)"/>
				<v:cp v:nameU="ID" v:lbl="Identyfikator" v:type="0" v:invis="false" v:langID="1045"/>
				<v:cp v:nameU="Name" v:lbl="Nazwa" v:type="0" v:invis="false" v:langID="1045"/>
				<v:cp v:nameU="Department" v:lbl="Dział" v:type="0" v:invis="false" v:langID="1045"/>
				<v:cp v:nameU="BelongsTo" v:lbl="Przynależność" v:type="0" v:invis="true" v:langID="1045"/>
				<v:cp v:nameU="Modify" v:lbl="Zmodyfikowano" v:type="5" v:invis="false" v:langID="1045"/>
				<v:cp v:nameU="AssetNumber" v:lbl="Numer wyposażenia" v:type="0" v:invis="false" v:langID="1045"/>
				<v:cp v:nameU="SerialNumber" v:lbl="Numer seryjny" v:type="0" v:invis="false" v:langID="1045"/>
				<v:cp v:nameU="ProductDescription" v:lbl="Opis produktu" v:type="0" v:invis="false" v:langID="1045"/>
				<v:cp v:nameU="PurchaseDate" v:lbl="Data zakupu" v:type="5" v:invis="false" v:langID="1045"/>
				<v:cp v:nameU="ProductNumber" v:lbl="Numer produktu" v:type="0" v:langID="1045"/>
				<v:cp v:nameU="BaseElevation" v:lbl="Wysokość podstawy" v:type="2" v:langID="1045"/>
			</v:custProps>
			<v:userDefs>
				<v:ud v:nameU="3D_type" v:val="VT0(1):26"/>
				<v:ud v:nameU="3D_model_id" v:val="VT4(stół, prostokątny, 6 krzeseł)"/>
				<v:ud v:nameU="visVersion" v:val="VT0(15):26"/>
				<v:ud v:nameU="SolSH" v:val="VT4({5D50005D-537C-4738-9C46-130C74335A6D})"/>
				<v:ud v:nameU="ShapeClass" v:prompt="Wyposażenie" v:val="VT0(2):26"/>
				<v:ud v:nameU="ShapeType" v:prompt="Meble" v:val="VT0(21):26"/>
				<v:ud v:nameU="SubShapeType" v:prompt="Stół" v:val="VT0(81):26"/>
			</v:userDefs>
			<title>Stół do jadalni — podłużny.65</title>
			<g id="shape66-122" v:mID="66" v:groupContext="shape" v:layerMember="0;1"
					transform="translate(305.865,245.385) rotate(90)">
				<title>Arkusz.66</title>
				<path d="M5.22 277.79 L1.44 277.79 A1.44 1.44 0 0 1 2.88 279.23 L2.88 291.47 A1.44 1.44 0 0 1 1.44 292.91 A1.44 1.44
							 0 0 1 0 291.47 L0 279.23 A1.44 1.44 0 0 1 1.44 277.79 A1.44 1.44 0 0 1 2.88 279.23 L2.88 291.47 A1.44
							 1.44 0 0 1 1.44 292.91 L5.22 292.91 L15.48 292.91 L15.48 277.79 L5.22 277.79 Z" class="st1"/>
			</g>
			<g id="shape67-124" v:mID="67" v:groupContext="shape" v:layerMember="0;1"
					transform="translate(325.305,245.385) rotate(90)">
				<title>Arkusz.67</title>
				<path d="M5.22 277.79 L1.44 277.79 A1.44 1.44 0 0 1 2.88 279.23 L2.88 291.47 A1.44 1.44 0 0 1 1.44 292.91 A1.44 1.44
							 0 0 1 0 291.47 L0 279.23 A1.44 1.44 0 0 1 1.44 277.79 A1.44 1.44 0 0 1 2.88 279.23 L2.88 291.47 A1.44
							 1.44 0 0 1 1.44 292.91 L5.22 292.91 L15.48 292.91 L15.48 277.79 L5.22 277.79 Z" class="st1"/>
			</g>
			<g id="shape68-126" v:mID="68" v:groupContext="shape" v:layerMember="0;1"
					transform="translate(-245.385,292.933) rotate(-90)">
				<title>Arkusz.68</title>
				<path d="M5.22 277.79 L1.44 277.79 A1.44 1.44 0 0 1 2.88 279.23 L2.88 291.47 A1.44 1.44 0 0 1 1.44 292.91 A1.44 1.44
							 0 0 1 0 291.47 L0 279.23 A1.44 1.44 0 0 1 1.44 277.79 A1.44 1.44 0 0 1 2.88 279.23 L2.88 291.47 A1.44
							 1.44 0 0 1 1.44 292.91 L5.22 292.91 L15.48 292.91 L15.48 277.79 L5.22 277.79 Z" class="st1"/>
			</g>
			<g id="shape69-128" v:mID="69" v:groupContext="shape" v:layerMember="0;1"
					transform="translate(-264.825,292.933) rotate(-90)">
				<title>Arkusz.69</title>
				<path d="M5.22 277.79 L1.44 277.79 A1.44 1.44 0 0 1 2.88 279.23 L2.88 291.47 A1.44 1.44 0 0 1 1.44 292.91 A1.44 1.44
							 0 0 1 0 291.47 L0 279.23 A1.44 1.44 0 0 1 1.44 277.79 A1.44 1.44 0 0 1 2.88 279.23 L2.88 291.47 A1.44
							 1.44 0 0 1 1.44 292.91 L5.22 292.91 L15.48 292.91 L15.48 277.79 L5.22 277.79 Z" class="st1"/>
			</g>
			<g id="shape70-130" v:mID="70" v:groupContext="shape" v:layerMember="0;1" transform="translate(0,-16.2)">
				<title>Arkusz.70</title>
				<path d="M5.22 277.79 L1.44 277.79 A1.44 1.44 0 0 1 2.88 279.23 L2.88 291.47 A1.44 1.44 0 0 1 1.44 292.91 A1.44 1.44
							 0 0 1 0 291.47 L0 279.23 A1.44 1.44 0 0 1 1.44 277.79 A1.44 1.44 0 0 1 2.88 279.23 L2.88 291.47 A1.44
							 1.44 0 0 1 1.44 292.91 L5.22 292.91 L15.48 292.91 L15.48 277.79 L5.22 277.79 Z" class="st1"/>
			</g>
			<g id="shape71-132" v:mID="71" v:groupContext="shape" v:layerMember="0;1"
					transform="translate(60.5077,554.49) rotate(180)">
				<title>Arkusz.71</title>
				<path d="M5.22 277.79 L1.44 277.79 A1.44 1.44 0 0 1 2.88 279.23 L2.88 291.47 A1.44 1.44 0 0 1 1.44 292.91 A1.44 1.44
							 0 0 1 0 291.47 L0 279.23 A1.44 1.44 0 0 1 1.44 277.79 A1.44 1.44 0 0 1 2.88 279.23 L2.88 291.47 A1.44
							 1.44 0 0 1 1.44 292.91 L5.22 292.91 L15.48 292.91 L15.48 277.79 L5.22 277.79 Z" class="st1"/>
			</g>
			<g id="shape72-134" v:mID="72" v:groupContext="shape" v:layerMember="0;1" transform="translate(8.64,-8.64)">
				<title>Arkusz.72</title>
				<rect x="0" y="262.665" width="43.2" height="30.24" class="st1"/>
			</g>
		</g>
	</g>
</svg>
